<svg xmlns="http://www.w3.org/2000/svg" width="389" height="396" viewBox="0 0 389 396"><g><g opacity=".1"><path fill="#1565c0" d="M194.5 396C301.92 396 389 308.92 389 201.5S301.92 7 194.5 7 0 94.08 0 201.5 87.08 396 194.5 396z"/></g><g><g><path fill="#dfe6f5" d="M282 55.923v52.166a37.718 37.718 0 0 1-8.16 23.48A38.057 38.057 0 0 1 244 146a38.057 38.057 0 0 1-29.84-14.431 37.718 37.718 0 0 1-8.16-23.48V55.923a37.686 37.686 0 0 1 8.784-24.256 36.085 36.085 0 0 1 3.258-3.414c14.611-13.67 37.348-13.67 51.958 0 .308.273.608.571.907.853.855.854 1.6 1.707 2.352 2.56a37.686 37.686 0 0 1 8.74 24.257z"/></g><g opacity=".1"><path d="M282 55.923v52.166a37.718 37.718 0 0 1-8.16 23.48A38.057 38.057 0 0 1 244 146a38.057 38.057 0 0 1-29.84-14.431 37.718 37.718 0 0 1-8.16-23.48V55.923a37.686 37.686 0 0 1 8.784-24.256 36.085 36.085 0 0 1 3.258-3.414c14.611-13.67 37.348-13.67 51.958 0 .308.273.608.571.907.853.855.854 1.6 1.707 2.352 2.56a37.686 37.686 0 0 1 8.74 24.257z"/></g><g><path fill="#dfe6f5" d="M284 55.923v52.166a37.734 37.734 0 0 1-8.154 23.48A38.018 38.018 0 0 1 246.026 146a38.018 38.018 0 0 1-29.82-14.431 37.734 37.734 0 0 1-8.206-23.48V55.923a37.701 37.701 0 0 1 8.778-24.256 36.075 36.075 0 0 1 3.256-3.414c14.601-13.67 37.322-13.67 51.923 0 .308.273.607.571.906.853.855.854 1.598 1.707 2.35 2.56A37.701 37.701 0 0 1 284 55.924z"/></g><g opacity=".1"><path d="M229.5 33a2.5 2.5 0 1 0 0-5 2.5 2.5 0 0 0 0 5z"/></g><g opacity=".1"><path d="M229.5 40a2.5 2.5 0 1 0 0-5 2.5 2.5 0 0 0 0 5z"/></g><g opacity=".1"><path d="M229.5 49a2.5 2.5 0 1 0 0-5 2.5 2.5 0 0 0 0 5z"/></g><g opacity=".1"><path d="M229.5 56a2.5 2.5 0 1 0 0-5 2.5 2.5 0 0 0 0 5z"/></g><g opacity=".1"><path d="M229.5 64a2.5 2.5 0 1 0 0-5 2.5 2.5 0 0 0 0 5z"/></g><g opacity=".1"><path d="M229.5 72a2.5 2.5 0 1 0 0-5 2.5 2.5 0 0 0 0 5z"/></g><g opacity=".1"><path d="M229.5 80a2.5 2.5 0 1 0 0-5 2.5 2.5 0 0 0 0 5z"/></g><g opacity=".1"><path d="M229.5 88a2.5 2.5 0 1 0 0-5 2.5 2.5 0 0 0 0 5z"/></g><g opacity=".1"><path d="M229.5 96a2.5 2.5 0 1 0 0-5 2.5 2.5 0 0 0 0 5z"/></g><g opacity=".1"><path d="M229.5 103a2.5 2.5 0 1 0 0-5 2.5 2.5 0 0 0 0 5z"/></g><g opacity=".1"><path d="M229.5 112a2.5 2.5 0 1 0 0-5 2.5 2.5 0 0 0 0 5z"/></g><g opacity=".1"><path d="M229.5 119a2.5 2.5 0 1 0 0-5 2.5 2.5 0 0 0 0 5z"/></g><g opacity=".1"><path d="M229.5 127a2.5 2.5 0 1 0 0-5 2.5 2.5 0 0 0 0 5z"/></g><g opacity=".1"><path d="M229.5 135a2.5 2.5 0 1 0 0-5 2.5 2.5 0 0 0 0 5z"/></g><g opacity=".1"><path d="M220 30.006c-.001 1.16-.548 2.215-1.404 2.709-.856.494-1.867.337-2.596-.401A43.05 43.05 0 0 1 219.35 28c.416.543.649 1.26.65 2.006z"/></g><g opacity=".1"><path d="M217.5 40a2.5 2.5 0 1 0 0-5 2.5 2.5 0 0 0 0 5z"/></g><g opacity=".1"><path d="M217.5 49a2.5 2.5 0 1 0 0-5 2.5 2.5 0 0 0 0 5z"/></g><g opacity=".1"><path d="M217.5 56a2.5 2.5 0 1 0 0-5 2.5 2.5 0 0 0 0 5z"/></g><g opacity=".1"><path d="M217.5 64a2.5 2.5 0 1 0 0-5 2.5 2.5 0 0 0 0 5z"/></g><g opacity=".1"><path d="M217.5 72a2.5 2.5 0 1 0 0-5 2.5 2.5 0 0 0 0 5z"/></g><g opacity=".1"><path d="M217.5 80a2.5 2.5 0 1 0 0-5 2.5 2.5 0 0 0 0 5z"/></g><g opacity=".1"><path d="M217.5 88a2.5 2.5 0 1 0 0-5 2.5 2.5 0 0 0 0 5z"/></g><g opacity=".1"><path d="M217.5 96a2.5 2.5 0 1 0 0-5 2.5 2.5 0 0 0 0 5z"/></g><g opacity=".1"><path d="M217.5 103a2.5 2.5 0 1 0 0-5 2.5 2.5 0 0 0 0 5z"/></g><g opacity=".1"><path d="M217.5 112a2.5 2.5 0 1 0 0-5 2.5 2.5 0 0 0 0 5z"/></g><g opacity=".1"><path d="M217.5 119a2.5 2.5 0 1 0 0-5 2.5 2.5 0 0 0 0 5z"/></g><g opacity=".1"><path d="M217.5 127a2.5 2.5 0 1 0 0-5 2.5 2.5 0 0 0 0 5z"/></g><g opacity=".1"><path d="M220 132.573c.001 1.1-.72 2.078-1.79 2.427a42.506 42.506 0 0 1-3.21-3.525c.521-1.089 1.75-1.676 2.954-1.412 1.202.264 2.054 1.309 2.046 2.51z"/></g><g opacity=".1"><path d="M240.5 33a2.5 2.5 0 1 0 0-5 2.5 2.5 0 0 0 0 5z"/></g><g opacity=".1"><path d="M240.5 40a2.5 2.5 0 1 0 0-5 2.5 2.5 0 0 0 0 5z"/></g><g opacity=".1"><path d="M240.5 49a2.5 2.5 0 1 0 0-5 2.5 2.5 0 0 0 0 5z"/></g><g opacity=".1"><path d="M240.5 56a2.5 2.5 0 1 0 0-5 2.5 2.5 0 0 0 0 5z"/></g><g opacity=".1"><path d="M240.5 64a2.5 2.5 0 1 0 0-5 2.5 2.5 0 0 0 0 5z"/></g><g opacity=".1"><path d="M240.5 72a2.5 2.5 0 1 0 0-5 2.5 2.5 0 0 0 0 5z"/></g><g opacity=".1"><path d="M240.5 80a2.5 2.5 0 1 0 0-5 2.5 2.5 0 0 0 0 5z"/></g><g opacity=".1"><path d="M240.5 88a2.5 2.5 0 1 0 0-5 2.5 2.5 0 0 0 0 5z"/></g><g opacity=".1"><path d="M240.5 96a2.5 2.5 0 1 0 0-5 2.5 2.5 0 0 0 0 5z"/></g><g opacity=".1"><path d="M240.5 103a2.5 2.5 0 1 0 0-5 2.5 2.5 0 0 0 0 5z"/></g><g opacity=".1"><path d="M240.5 112a2.5 2.5 0 1 0 0-5 2.5 2.5 0 0 0 0 5z"/></g><g opacity=".1"><path d="M240.5 119a2.5 2.5 0 1 0 0-5 2.5 2.5 0 0 0 0 5z"/></g><g opacity=".1"><path d="M240.5 127a2.5 2.5 0 1 0 0-5 2.5 2.5 0 0 0 0 5z"/></g><g opacity=".1"><path d="M240.5 135a2.5 2.5 0 1 0 0-5 2.5 2.5 0 0 0 0 5z"/></g><g opacity=".1"><path d="M252.5 33a2.5 2.5 0 1 0 0-5 2.5 2.5 0 0 0 0 5z"/></g><g opacity=".1"><path d="M252.5 40a2.5 2.5 0 1 0 0-5 2.5 2.5 0 0 0 0 5z"/></g><g opacity=".1"><path d="M252.5 49a2.5 2.5 0 1 0 0-5 2.5 2.5 0 0 0 0 5z"/></g><g opacity=".1"><path d="M252.5 56a2.5 2.5 0 1 0 0-5 2.5 2.5 0 0 0 0 5z"/></g><g opacity=".1"><path d="M252.5 64a2.5 2.5 0 1 0 0-5 2.5 2.5 0 0 0 0 5z"/></g><g opacity=".1"><path d="M252.5 72a2.5 2.5 0 1 0 0-5 2.5 2.5 0 0 0 0 5z"/></g><g opacity=".1"><path d="M252.5 80a2.5 2.5 0 1 0 0-5 2.5 2.5 0 0 0 0 5z"/></g><g opacity=".1"><path d="M252.5 88a2.5 2.5 0 1 0 0-5 2.5 2.5 0 0 0 0 5z"/></g><g opacity=".1"><path d="M252.5 96a2.5 2.5 0 1 0 0-5 2.5 2.5 0 0 0 0 5z"/></g><g opacity=".1"><path d="M252.5 103a2.5 2.5 0 1 0 0-5 2.5 2.5 0 0 0 0 5z"/></g><g opacity=".1"><path d="M252.5 112a2.5 2.5 0 1 0 0-5 2.5 2.5 0 0 0 0 5z"/></g><g opacity=".1"><path d="M252.5 119a2.5 2.5 0 1 0 0-5 2.5 2.5 0 0 0 0 5z"/></g><g opacity=".1"><path d="M252.5 127a2.5 2.5 0 1 0 0-5 2.5 2.5 0 0 0 0 5z"/></g><g opacity=".1"><path d="M252.5 135a2.5 2.5 0 1 0 0-5 2.5 2.5 0 0 0 0 5z"/></g><g opacity=".1"><path d="M262.5 33a2.5 2.5 0 1 0 0-5 2.5 2.5 0 0 0 0 5z"/></g><g opacity=".1"><path d="M262.5 40a2.5 2.5 0 1 0 0-5 2.5 2.5 0 0 0 0 5z"/></g><g opacity=".1"><path d="M262.5 49a2.5 2.5 0 1 0 0-5 2.5 2.5 0 0 0 0 5z"/></g><g opacity=".1"><path d="M262.5 56a2.5 2.5 0 1 0 0-5 2.5 2.5 0 0 0 0 5z"/></g><g opacity=".1"><path d="M262.5 64a2.5 2.5 0 1 0 0-5 2.5 2.5 0 0 0 0 5z"/></g><g opacity=".1"><path d="M262.5 72a2.5 2.5 0 1 0 0-5 2.5 2.5 0 0 0 0 5z"/></g><g opacity=".1"><path d="M262.5 80a2.5 2.5 0 1 0 0-5 2.5 2.5 0 0 0 0 5z"/></g><g opacity=".1"><path d="M262.5 88a2.5 2.5 0 1 0 0-5 2.5 2.5 0 0 0 0 5z"/></g><g opacity=".1"><path d="M262.5 96a2.5 2.5 0 1 0 0-5 2.5 2.5 0 0 0 0 5z"/></g><g opacity=".1"><path d="M262.5 103a2.5 2.5 0 1 0 0-5 2.5 2.5 0 0 0 0 5z"/></g><g opacity=".1"><path d="M262.5 112a2.5 2.5 0 1 0 0-5 2.5 2.5 0 0 0 0 5z"/></g><g opacity=".1"><path d="M262.5 119a2.5 2.5 0 1 0 0-5 2.5 2.5 0 0 0 0 5z"/></g><g opacity=".1"><path d="M262.5 127a2.5 2.5 0 1 0 0-5 2.5 2.5 0 0 0 0 5z"/></g><g opacity=".1"><path d="M262.5 135a2.5 2.5 0 1 0 0-5 2.5 2.5 0 0 0 0 5z"/></g><g opacity=".1"><path d="M276 32.317c-.73.735-1.74.89-2.596.4-.856-.493-1.403-1.543-1.404-2.698-.003-.75.23-1.473.65-2.019.317.344.625.72.932 1.074A57.488 57.488 0 0 1 276 32.317z"/></g><g opacity=".1"><path d="M273.5 40a2.5 2.5 0 1 0 0-5 2.5 2.5 0 0 0 0 5z"/></g><g opacity=".1"><path d="M273.5 49a2.5 2.5 0 1 0 0-5 2.5 2.5 0 0 0 0 5z"/></g><g opacity=".1"><path d="M273.5 56a2.5 2.5 0 1 0 0-5 2.5 2.5 0 0 0 0 5z"/></g><g opacity=".1"><path d="M273.5 64a2.5 2.5 0 1 0 0-5 2.5 2.5 0 0 0 0 5z"/></g><g opacity=".1"><path d="M273.5 72a2.5 2.5 0 1 0 0-5 2.5 2.5 0 0 0 0 5z"/></g><g opacity=".1"><path d="M273.5 80a2.5 2.5 0 1 0 0-5 2.5 2.5 0 0 0 0 5z"/></g><g opacity=".1"><path d="M273.5 88a2.5 2.5 0 1 0 0-5 2.5 2.5 0 0 0 0 5z"/></g><g opacity=".1"><path d="M273.5 96a2.5 2.5 0 1 0 0-5 2.5 2.5 0 0 0 0 5z"/></g><g opacity=".1"><path d="M273.5 103a2.5 2.5 0 1 0 0-5 2.5 2.5 0 0 0 0 5z"/></g><g opacity=".1"><path d="M273.5 112a2.5 2.5 0 1 0 0-5 2.5 2.5 0 0 0 0 5z"/></g><g opacity=".1"><path d="M273.5 119a2.5 2.5 0 1 0 0-5 2.5 2.5 0 0 0 0 5z"/></g><g opacity=".1"><path d="M273.5 127a2.5 2.5 0 1 0 0-5 2.5 2.5 0 0 0 0 5z"/></g><g opacity=".1"><path d="M276 131.476a42.444 42.444 0 0 1-3.2 3.524c-1.136-.367-1.874-1.44-1.794-2.606.08-1.167.957-2.133 2.133-2.35 1.176-.216 2.353.373 2.861 1.432z"/></g><g><path fill="#54576b" d="M239 110a5 5 0 0 1 5-5h1a5 5 0 0 1 5 5v95a5 5 0 0 1-5 5h-1a5 5 0 0 1-5-5z"/></g><g><path fill="#54576b" d="M206 203.95a6.95 6.95 0 0 1 6.95-6.95h62.1a6.95 6.95 0 0 1 6.95 6.95v.1a6.95 6.95 0 0 1-6.95 6.95h-62.1a6.95 6.95 0 0 1-6.95-6.95z"/></g><g opacity=".1"><path d="M239 110a5 5 0 0 1 5-5h1a5 5 0 0 1 5 5v95a5 5 0 0 1-5 5h-1a5 5 0 0 1-5-5z"/></g><g opacity=".1"><path d="M206 203.95a6.95 6.95 0 0 1 6.95-6.95h62.1a6.95 6.95 0 0 1 6.95 6.95v.1a6.95 6.95 0 0 1-6.95 6.95h-62.1a6.95 6.95 0 0 1-6.95-6.95z"/></g><g><path fill="#54576b" d="M240 110a5 5 0 0 1 5-5h1a5 5 0 0 1 5 5v95a5 5 0 0 1-5 5h-1a5 5 0 0 1-5-5z"/></g><g><path fill="#54576b" d="M208 203.95a6.95 6.95 0 0 1 6.95-6.95h62.1a6.95 6.95 0 0 1 6.95 6.95v.1a6.95 6.95 0 0 1-6.95 6.95h-62.1a6.95 6.95 0 0 1-6.95-6.95z"/></g><g><path fill="#54576b" d="M312.215 113.144c-12.158 26.22-38.604 43.024-67.715 43.024-29.111 0-55.557-16.803-67.715-43.024C168.895 101.926 162 79.56 162 82.217 162 127.385 198.937 164 244.5 164S327 127.385 327 82.217c0-2.657-6.896 19.71-14.785 30.927z"/></g><g><path fill="#54576b" d="M245.004 0c-27.17.007-52.614 13.143-68.111 35.164A72.747 72.747 0 0 0 170 66.127c0 2.63.14 5.258.422 7.873C174.308 36.237 206.532 7.506 245 7.506S315.692 36.237 319.578 74c.281-2.615.422-5.243.422-7.873a72.747 72.747 0 0 0-6.893-30.963C297.612 13.145 272.171.01 245.004 0z"/></g></g><g opacity=".5"><path fill="#1565c0" d="M133.178 210.998c3.784 0 6.966-1.29 9.546-3.87 2.58-2.58 3.87-5.676 3.87-9.288V22.916c0-3.956-1.161-7.181-3.483-9.675-2.322-2.494-5.461-3.741-9.417-3.741-.688 0-1.462.086-2.322.258-.86.172-1.72.43-2.58.774L88.544 24.98c-2.924 1.032-5.074 2.666-6.45 4.902-1.376 2.236-2.064 4.73-2.064 7.482 0 3.784 1.247 6.88 3.741 9.288 2.494 2.408 5.633 3.612 9.417 3.612 2.58 0 5.332-.602 8.256-1.806l18.834-7.998v157.38c0 3.612 1.29 6.708 3.87 9.288s5.59 3.87 9.03 3.87z"/></g></g></svg>