<svg xmlns="http://www.w3.org/2000/svg" width="457" height="390" viewBox="0 0 457 390"><defs><linearGradient id="k6hca" x1="208" x2="208" y1="94" y2="42" gradientUnits="userSpaceOnUse"><stop offset="0" stop-color="gray" stop-opacity=".25"/><stop offset=".54" stop-color="gray" stop-opacity=".12"/><stop offset="1" stop-color="gray" stop-opacity=".1"/></linearGradient></defs><g><g opacity=".1"><path fill="#1565c0" d="M239.5 390C346.92 390 434 302.92 434 195.5S346.92 1 239.5 1 45 88.08 45 195.5 132.08 390 239.5 390z"/></g><g><g><path fill="#cbcdda" d="M143 35.433C143 23.596 152.596 14 164.433 14h271.134C447.404 14 457 23.596 457 35.433v145.134c0 11.837-9.596 21.433-21.433 21.433H164.433C152.596 202 143 192.404 143 180.567z"/></g><g opacity=".3"><path fill="#1565c0" d="M177 146h246v9H177z"/></g><g opacity=".3"><path fill="#1565c0" d="M177 122h246v9H177z"/></g><g opacity=".3"><path fill="#1565c0" d="M379 90h44v9h-44z"/></g><g opacity=".3"><path fill="#1565c0" d="M262 67h161v9H262z"/></g><g opacity=".3"><path fill="#1565c0" d="M177 169h123v9H177z"/></g><g><path fill="#1565c0" d="M177 47.165C177 41.551 181.551 37 187.165 37h41.67C234.449 37 239 41.551 239 47.165v41.67C239 94.449 234.449 99 228.835 99h-41.67C181.551 99 177 94.449 177 88.835z"/></g></g><g><g opacity=".5"><g opacity=".5"><path fill="url(#k6hca)" d="M208 94c14.36 0 26-11.64 26-26s-11.64-26-26-26-26 11.64-26 26 11.64 26 26 26z"/></g></g><g><path fill="#f5f5f5" d="M207.996 93.243c13.944 0 25.247-11.303 25.247-25.247 0-13.943-11.303-25.246-25.247-25.246-13.943 0-25.246 11.303-25.246 25.246 0 13.944 11.303 25.247 25.246 25.247z"/></g><g><path fill="#1565c0" d="M207.934 93.247a25.015 25.015 0 0 0 14.004-4.27c-.94-5.23-4.512-5.527-4.512-5.527h-19.702s-3.371.282-4.424 5.092a25.034 25.034 0 0 0 14.634 4.705z"/></g><g><path fill="#333" d="M208.005 79.68c6.867 0 12.435-5.568 12.435-12.435 0-6.868-5.568-12.435-12.435-12.435-6.868 0-12.435 5.567-12.435 12.435 0 6.867 5.567 12.435 12.435 12.435z"/></g><g opacity=".1"><path d="M203.86 77.42h7.536v6.493c0 2.24-1.686 4.057-3.766 4.058-2.082 0-3.769-1.817-3.769-4.058V77.42z"/></g><g><path fill="#fdb797" d="M204.097 77.42h7.06c.132 0 .24.115.24.257v6.235a4.222 4.222 0 0 1-1.104 2.87c-.707.762-1.666 1.19-2.666 1.189-2.08 0-3.767-1.817-3.767-4.058v-6.236c0-.141.106-.256.237-.257z"/></g><g opacity=".1"><path d="M204.61 80.538c2.429.859 5.102.866 7.536.02v-.878h-7.536z"/></g><g><path fill="#fdb797" d="M207.624 81.189c6.244 0 11.305-5.061 11.305-11.305 0-6.243-5.061-11.304-11.305-11.304-6.243 0-11.304 5.061-11.304 11.304 0 6.244 5.061 11.305 11.304 11.305z"/></g><g opacity=".1"><path d="M199.33 59.044s4.734 9.267 18.087 3.885l-3.109-4.701-5.511-1.908z"/></g><g><path fill="#333" d="M199.33 59.045s4.734 9.267 18.087 3.884l-3.109-4.701-5.511-1.908z"/></g><g><path fill="#333" d="M199.565 58.588a6.291 6.291 0 0 1 1.615-2.547c2.217-2.127 5.852-2.576 7.717-5.001.447.673.101 1.708-.67 1.997 1.786-.012 3.856-.163 4.867-1.589.509 1.15.29 2.484-.564 3.423 1.583.073 3.275 1.113 3.375 2.647.068 1.023-.596 1.99-1.458 2.577-.863.587-1.914.856-2.945 1.076-3.01.645-13.901 3.344-11.937-2.583z"/></g><g><path fill="#fdb797" d="M196.7 72.148c.625 0 1.13-.843 1.13-1.884 0-1.04-.505-1.884-1.13-1.884-.624 0-1.13.843-1.13 1.884 0 1.04.506 1.884 1.13 1.884z"/></g><g><path fill="#fdb797" d="M219.3 72.148c.625 0 1.13-.843 1.13-1.884 0-1.04-.505-1.884-1.13-1.884-.624 0-1.13.843-1.13 1.884 0 1.04.506 1.884 1.13 1.884z"/></g></g><g opacity=".5"><path fill="#1565c0" d="M109.388 201.998c3.784 0 6.966-1.29 9.546-3.87 2.58-2.58 3.87-5.676 3.87-9.288 0-3.44-1.29-6.493-3.87-9.159-2.58-2.666-5.762-3.999-9.546-3.999h-72.24l59.082-67.08c3.612-4.128 7.181-8.772 10.707-13.932a87.405 87.405 0 0 0 8.772-16.254c2.322-5.676 3.483-11.266 3.483-16.77 0-12.556-2.365-23.392-7.095-32.508-4.73-9.116-11.395-16.168-19.995-21.156C83.502 2.994 73.354.5 61.658.5 50.134.5 39.771 3.166 30.569 8.498 21.367 13.83 14.1 21.097 8.768 30.299 3.436 39.501.77 49.95.77 61.646c0 3.44 1.29 6.45 3.87 9.03 2.58 2.58 5.676 3.87 9.288 3.87 3.784 0 6.923-1.29 9.417-3.87 2.494-2.58 3.741-5.59 3.741-9.03 0-6.708 1.505-12.857 4.515-18.447s7.138-10.062 12.384-13.416c5.246-3.354 11.137-5.031 17.673-5.031 6.708 0 12.47 1.505 17.286 4.515 4.816 3.01 8.514 7.267 11.094 12.771 2.58 5.504 3.87 12.04 3.87 19.608 0 4.816-1.419 9.89-4.257 15.222-2.838 5.332-6.837 11.008-11.997 17.028L4.382 179.552C1.974 181.96.77 185.056.77 188.84c0 3.612 1.247 6.708 3.741 9.288 2.494 2.58 5.633 3.87 9.417 3.87z"/></g></g></svg>