<svg xmlns="http://www.w3.org/2000/svg" width="442" height="395" viewBox="0 0 442 395"><g><g opacity=".1"><path fill="#1565c0" d="M194.5 394.5C301.92 394.5 389 307.42 389 200S301.92 5.5 194.5 5.5 0 92.58 0 200s87.08 194.5 194.5 194.5z"/></g><g><g opacity=".6"><path fill="#1565c0" d="M228.86 149.375c0-16.23 13.2-29.388 29.48-29.388 16.282 0 29.48 13.157 29.48 29.388-.04 16.214-13.215 29.347-29.48 29.388-16.28 0-29.48-13.158-29.48-29.388zm68.75 3.49c.106-1.165.17-2.341.17-3.527a39.08 39.08 0 0 0-1.527-10.813l-4.58.22-2.106-5.752 2.959-3.223a39.628 39.628 0 0 0-9.37-10.96l-3.612 2.793-5.032-3.506.579-4.335a39.224 39.224 0 0 0-13.97-3.622l-1.36 4.356h-6.137l-2.021-3.884a39.35 39.35 0 0 0-19.088 9.06l2.106 4.03-4.338 4.326-4.211-1.312a39.092 39.092 0 0 0-6.033 13.08l4.085 2.099-1.053 6.026-4.211 1.312v.094a39.003 39.003 0 0 0 2.622 14.067l4.548-.62 2.59 5.543-2.664 3.464c2.777 3.97 6.26 7.4 10.275 10.12l3.359-3.15 5.317 3.066-.19 4.388a39.352 39.352 0 0 0 13.582 2.404h.663l.968-4.462 6.117-.535 2.359 3.695a39.34 39.34 0 0 0 13.033-6.193l-1.768-4.2 4.706-3.936 4.043 1.67a39.284 39.284 0 0 0 7.148-12.514l-3.874-2.435 1.59-5.91z"/></g><g opacity=".4"><path fill="#1565c0" d="M278.342 76.945c0-16.23 13.198-29.388 29.479-29.388 16.28 0 29.479 13.157 29.479 29.388-.041 16.214-13.215 29.347-29.48 29.388-16.28 0-29.478-13.158-29.478-29.388zm68.749 3.49c.105-1.165.168-2.341.168-3.527a39.08 39.08 0 0 0-1.526-10.813l-4.58.22-2.106-5.752 2.959-3.223a39.628 39.628 0 0 0-9.37-10.959l-3.612 2.792-5.032-3.506.579-4.335a39.224 39.224 0 0 0-13.97-3.622l-1.36 4.356h-6.137l-2.021-3.884a39.35 39.35 0 0 0-19.088 9.06l2.106 4.03-4.338 4.326-4.211-1.312a39.092 39.092 0 0 0-6.033 13.08l4.085 2.099-1.053 6.026-4.211 1.312v.094a39.003 39.003 0 0 0 2.622 14.067l4.548-.62 2.59 5.543-2.664 3.464c2.777 3.97 6.26 7.4 10.275 10.12l3.359-3.15 5.317 3.066-.19 4.388a39.352 39.352 0 0 0 13.582 2.404h.663l.968-4.462 6.117-.535 2.359 3.695a39.34 39.34 0 0 0 13.033-6.193l-1.768-4.2 4.706-3.936 4.043 1.67a39.284 39.284 0 0 0 7.148-12.514l-3.874-2.435 1.59-5.91z"/></g><g><path fill="#1565c0" d="M340.596 160.621a29.322 29.322 0 0 1 6.39-32.027c8.43-8.405 21.11-10.919 32.126-6.37 11.015 4.548 18.198 15.264 18.198 27.15-.041 16.215-13.215 29.348-29.48 29.389-11.922 0-22.672-7.16-27.234-18.142zm66.505-7.756c.105-1.165.168-2.341.168-3.527a39.08 39.08 0 0 0-1.526-10.813l-4.58.22-2.106-5.752 2.959-3.223a39.628 39.628 0 0 0-9.37-10.96l-3.612 2.793-5.032-3.506.579-4.335a39.224 39.224 0 0 0-13.97-3.622l-1.36 4.356h-6.137l-2.021-3.884a39.35 39.35 0 0 0-19.088 9.06l2.106 4.03-4.338 4.326-4.211-1.312a39.092 39.092 0 0 0-6.033 13.08l4.085 2.099-1.053 6.026-4.211 1.312v.094a39.003 39.003 0 0 0 2.622 14.067l4.548-.62 2.59 5.543-2.664 3.464c2.777 3.97 6.26 7.4 10.275 10.12l3.359-3.15 5.317 3.066-.19 4.388a39.352 39.352 0 0 0 13.582 2.404h.663l.968-4.462 6.117-.535 2.359 3.695a39.34 39.34 0 0 0 13.033-6.193l-1.768-4.2 4.706-3.936 4.043 1.67a39.284 39.284 0 0 0 7.148-12.514l-3.874-2.435 1.59-5.91z"/></g><g><path fill="none" stroke="#1565c0" stroke-miterlimit="20" d="M248.857 9.525h-6.317"/></g><g><path fill="none" stroke="#1565c0" stroke-dasharray="12.71 12.71" stroke-miterlimit="20" d="M229.163 9.525H155.54"/></g><g><path fill="none" stroke="#1565c0" stroke-miterlimit="20" d="M148.847 9.52v0h-6.317v6.299"/></g><g><path fill="none" stroke="#1565c0" stroke-dasharray="11.33 11.33" stroke-miterlimit="20" d="M142.526 27.72v89.229"/></g><g><path fill="none" stroke="#1565c0" stroke-miterlimit="20" d="M142.526 122.9v6.299"/></g><g><path fill="none" stroke="#1565c0" stroke-dasharray="12 12" stroke-miterlimit="20" d="M297.82 220v0h143.183v0V95.08v0"/></g><g><path fill="#1565c0" d="M171 75.5c0-21.815 17.685-39.5 39.5-39.5S250 53.685 250 75.5 232.315 115 210.5 115 171 97.315 171 75.5zm28.44-7.483v14.979h9.831L221.56 96.04V54.96l-12.289 13.057z"/></g></g><g opacity=".5"><path fill="#1565c0" d="M72.496 201.996c11.352 0 21.758-2.537 31.218-7.611s17.028-12.04 22.704-20.898c5.676-8.858 8.514-18.877 8.514-30.057 0-8.084-1.333-15.566-3.999-22.446-2.666-6.88-6.837-12.943-12.513-18.189s-13.072-9.417-22.188-12.513c5.16-2.408 10.062-5.461 14.706-9.159a47.297 47.297 0 0 0 11.481-13.287c3.01-5.16 4.515-11.094 4.515-17.802 0-9.46-2.365-17.931-7.095-25.413-4.73-7.482-11.18-13.416-19.35-17.802C92.319 2.433 83.16.24 73.012.24c-11.008 0-20.984 2.279-29.928 6.837-8.944 4.558-15.996 10.793-21.156 18.705-5.16 7.912-7.74 16.856-7.74 26.832 0 3.784 1.161 6.923 3.483 9.417 2.322 2.494 5.117 3.741 8.385 3.741 3.44 0 6.278-1.333 8.514-3.999 2.236-2.666 3.354-5.977 3.354-9.933 0-5.332 1.591-10.148 4.773-14.448 3.182-4.3 7.482-7.74 12.9-10.32s11.395-3.87 17.931-3.87c8.6 0 15.652 2.58 21.156 7.74s8.256 11.524 8.256 19.092c0 5.332-1.462 10.105-4.386 14.319A32.747 32.747 0 0 1 87.46 74.415c-4.472 2.494-9.116 3.741-13.932 3.741-3.784 0-6.923 1.247-9.417 3.741-2.494 2.494-3.741 5.633-3.741 9.417s1.247 6.966 3.741 9.546c2.494 2.58 5.633 3.87 9.417 3.87 6.708 0 12.728 1.72 18.06 5.16 5.332 3.44 9.546 8.041 12.642 13.803 3.096 5.762 4.644 12.255 4.644 19.479 0 11.352-3.483 20.167-10.449 26.445-6.966 6.278-16.125 9.417-27.477 9.417-7.74 0-14.706-1.763-20.898-5.289s-11.094-8.256-14.706-14.19c-3.612-5.934-5.418-12.427-5.418-19.479 0-3.956-1.118-7.181-3.354-9.675-2.236-2.494-5.074-3.741-8.514-3.741-3.268 0-6.063 1.247-8.385 3.741-2.322 2.494-3.483 5.719-3.483 9.675 0 11.696 2.838 22.231 8.514 31.605 5.676 9.374 13.502 16.77 23.478 22.188 9.976 5.418 21.414 8.127 34.314 8.127z"/></g></g></svg>