<svg xmlns="http://www.w3.org/2000/svg" width="1460" height="793" viewBox="0 0 1460 793"><g><g><g opacity=".1"><path fill="#1565c0" d="M507.708 6.78l37.71 59.11a4.4 4.4 0 0 0 7.69-.51l27.5-59.13a4.4 4.4 0 0 0-4-6.25h-65.21a4.39 4.39 0 0 0-3.69 6.78z"/></g><g opacity=".1"><path fill="#1565c0" d="M15.339 688.611l11-16.33a4.39 4.39 0 0 0-3.54-6.84l-18.3-.44a4.39 4.39 0 0 0-4.13 6.15l7.32 16.77a4.39 4.39 0 0 0 7.65.69z"/></g><g opacity=".1"><path fill="#1565c0" d="M901.898 678.193l-18.8 5.82a4.39 4.39 0 0 0-1.54 7.55l14 11.84a4.4 4.4 0 0 0 7.08-2.2l4.8-17.67a4.4 4.4 0 0 0-5.54-5.34z"/></g><g opacity=".1"><path fill="#1565c0" d="M434.898 766.193l-18.8 5.82a4.39 4.39 0 0 0-1.54 7.55l14 11.84a4.4 4.4 0 0 0 7.08-2.2l4.8-17.67a4.4 4.4 0 0 0-5.54-5.34z"/></g><g opacity=".1"><path fill="#1565c0" d="M102.898 78.193l-18.8 5.82a4.39 4.39 0 0 0-1.54 7.55l14 11.84a4.4 4.4 0 0 0 7.08-2.2l4.8-17.67a4.4 4.4 0 0 0-5.54-5.34z"/></g><g opacity=".1"><path fill="#1565c0" d="M799.9 141.976l-1.88 19.58a4.4 4.4 0 0 0 6.37 4.34l16.31-8.32a4.39 4.39 0 0 0 .7-7.38l-14.42-11.27a4.4 4.4 0 0 0-7.08 3.05z"/></g><g opacity=".1"><path fill="#1565c0" d="M1436.9 720.976l-1.88 19.58a4.4 4.4 0 0 0 6.37 4.34l16.31-8.32a4.39 4.39 0 0 0 .7-7.38l-14.42-11.27a4.4 4.4 0 0 0-7.08 3.05z"/></g></g></g></svg>