<svg xmlns="http://www.w3.org/2000/svg" width="1735" height="1007" viewBox="0 0 1735 1007"><g><g><g><path fill="#d0cde1" d="M141.554 118.677l-6.788 8.556c-10.822-15.132-23.78-27.4-38.554-36.466A126.289 126.289 0 0 0 55.848 74.82C31.199 69.667 12.189 73.144 12 73.18l.457 2.351c.184-.035 18.712-3.422 42.887 1.633 21.896 4.578 52.897 17.228 77.345 51.326l-10.704 2.282c6.736 2.008 14.981 6.866 20.813 11.285-1.498-7.097-2.345-16.528-1.244-23.379z"/></g><g><path fill="#d0cde1" d="M1725.957 320c-.148.116-15.138 11.708-39.137 18.344-21.692 6-55.337 9.019-93.34-10.004l8.46-6.96c-6.965 1.32-16.634.802-23.94-.44 4.715 5.62 9.962 13.614 12.242 20.21l1.982-10.736c16.86 8.464 34.261 13.397 51.76 14.647 3.001.215 6.007.322 9.016.322a129.22 129.22 0 0 0 34.586-4.753c24.443-6.78 39.746-18.632 39.898-18.75z"/></g><g><path fill="#3f3d56" d="M1141.818 6.03l10.02 10.507-10.742 9.8-10.02-10.507zm12.096 10.578L1141.891 4 1129 15.76l12.023 12.607z"/></g><g><path fill="#3f3d56" d="M1387.78 279.015c3.724 0 6.743 2.953 6.743 6.595s-3.019 6.594-6.742 6.594c-3.724 0-6.743-2.952-6.743-6.594.004-3.64 3.02-6.59 6.743-6.595zm-7.78 6.6c.005 4.203 3.488 7.61 7.786 7.615 4.3 0 7.785-3.41 7.785-7.615 0-4.206-3.486-7.615-7.785-7.615-4.3 0-7.786 3.41-7.786 7.615z"/></g><g><path fill="#3f3d56" d="M1623.818 674.967l10.02-10.507-10.742-9.8-10.02 10.507zm12.096-10.577l-12.023 12.607-12.891-11.76 12.023-12.607z"/></g><g><path fill="#3f3d56" d="M1726.78 527.984c3.724 0 6.743-2.952 6.743-6.594 0-3.642-3.019-6.595-6.742-6.595-3.724 0-6.743 2.953-6.743 6.595.004 3.64 3.02 6.59 6.743 6.594zm-7.78-6.6c.005-4.203 3.488-7.61 7.786-7.614 4.3 0 7.785 3.41 7.785 7.615s-3.486 7.615-7.785 7.615c-4.3 0-7.786-3.41-7.786-7.615z"/></g><g><path fill="#3f3d56" d="M1408.096 599.337l-10.02-10.507 10.742-9.8 10.02 10.507zM1396 588.76l12.023 12.607 12.891-11.76L1408.891 577z"/></g><g><path fill="#3f3d56" d="M1549.79 448.214c-3.723 0-6.742-2.952-6.742-6.594 0-3.642 3.019-6.595 6.743-6.595 3.723 0 6.742 2.953 6.742 6.595-.004 3.64-3.02 6.59-6.742 6.594zm7.781-6.6c-.005-4.203-3.487-7.61-7.785-7.614-4.3 0-7.786 3.41-7.786 7.615s3.486 7.615 7.786 7.615c4.3 0 7.785-3.41 7.785-7.615z"/></g><g><path fill="#3f3d56" d="M1071.818 170.03l10.02 10.507-10.742 9.8-10.02-10.507zm12.096 10.578L1071.891 168 1059 179.76l12.023 12.607z"/></g><g><path fill="#3f3d56" d="M66.78 954.015c3.724 0 6.743 2.953 6.743 6.595s-3.019 6.594-6.742 6.594c-3.724 0-6.743-2.952-6.743-6.594.004-3.64 3.02-6.59 6.743-6.595zm-7.78 6.6c.005 4.203 3.488 7.61 7.786 7.615 4.3 0 7.785-3.41 7.785-7.615 0-4.206-3.486-7.615-7.785-7.615-4.3 0-7.786 3.41-7.786 7.615z"/></g><g><path fill="#3f3d56" d="M66.78 954.015c3.724 0 6.743 2.953 6.743 6.595s-3.019 6.594-6.742 6.594c-3.724 0-6.743-2.952-6.743-6.594.004-3.64 3.02-6.59 6.743-6.595zm-7.78 6.6c.005 4.203 3.488 7.61 7.786 7.615 4.3 0 7.785-3.41 7.785-7.615 0-4.206-3.486-7.615-7.785-7.615-4.3 0-7.786 3.41-7.786 7.615z"/></g><g><path fill="#3f3d56" d="M356.78 646.015c3.724 0 6.743 2.953 6.743 6.595s-3.019 6.594-6.742 6.594c-3.724 0-6.743-2.952-6.743-6.594.004-3.64 3.02-6.59 6.743-6.595zm-7.78 6.6c.005 4.203 3.488 7.61 7.786 7.615 4.3 0 7.785-3.41 7.785-7.615 0-4.206-3.486-7.615-7.785-7.615-4.3 0-7.786 3.41-7.786 7.615z"/></g><g><path fill="#3f3d56" d="M207.78 393.015c3.724 0 6.743 2.953 6.743 6.595s-3.019 6.594-6.742 6.594c-3.724 0-6.743-2.952-6.743-6.594.004-3.64 3.02-6.59 6.743-6.595zm-7.78 6.6c.005 4.203 3.488 7.61 7.786 7.615 4.3 0 7.785-3.41 7.785-7.615 0-4.206-3.486-7.615-7.785-7.615-4.3 0-7.786 3.41-7.786 7.615z"/></g><g><path fill="#3f3d56" d="M1288.78 875.015c3.724 0 6.743 2.953 6.743 6.595s-3.019 6.594-6.742 6.594c-3.724 0-6.743-2.952-6.743-6.594.004-3.64 3.02-6.59 6.743-6.595zm-7.78 6.6c.005 4.203 3.488 7.61 7.786 7.615 4.3 0 7.785-3.41 7.785-7.615 0-4.206-3.486-7.615-7.785-7.615-4.3 0-7.786 3.41-7.786 7.615z"/></g><g><path fill="#3f3d56" d="M583.78 768.015c3.724 0 6.743 2.953 6.743 6.595s-3.019 6.594-6.742 6.594c-3.724 0-6.743-2.952-6.743-6.594.004-3.64 3.02-6.59 6.743-6.595zm-7.78 6.6c.005 4.203 3.488 7.61 7.786 7.615 4.3 0 7.785-3.41 7.785-7.615 0-4.206-3.486-7.615-7.785-7.615-4.3 0-7.786 3.41-7.786 7.615z"/></g><g><path fill="#3f3d56" d="M314.281 2.03l9.519 9.982-10.205 9.31-9.519-9.982zm11.595 10.052L314.353 0 302 11.27l11.522 12.082z"/></g><g><path fill="#3f3d56" d="M188.281 765.03l9.519 9.982-10.205 9.31-9.519-9.982zm11.595 10.052L188.353 763 176 774.27l11.522 12.082z"/></g><g><path fill="#3f3d56" d="M337.281 985.03l9.519 9.982-10.205 9.31-9.519-9.982zm11.595 10.052L337.353 983 325 994.27l11.522 12.082z"/></g><g><path fill="#3f3d56" d="M1435.281 963.03l9.519 9.982-10.205 9.31-9.519-9.982zm11.595 10.052L1435.353 961 1423 972.27l11.522 12.082z"/></g><g><path fill="#3f3d56" d="M12.281 283.03l9.519 9.982-10.205 9.31-9.519-9.982zm11.595 10.052L12.353 281 0 292.27l11.522 12.082z"/></g><g><path fill="#d0cde1" d="M1381.527 797c.148.116 15.138 11.708 39.137 18.344 21.692 6 55.336 9.019 93.34-10.004l-8.46-6.96c6.965 1.32 16.634.802 23.94-.44-4.715 5.62-9.962 13.614-12.243 20.21l-1.981-10.736c-16.861 8.464-34.262 13.397-51.76 14.647-3.001.215-6.007.322-9.016.322a129.22 129.22 0 0 1-34.586-4.753c-24.443-6.78-39.746-18.632-39.898-18.75z"/></g></g></g></svg>