<svg xmlns="http://www.w3.org/2000/svg" width="1114" height="1075" viewBox="0 0 1114 1075"><g><g><g opacity=".1"><path fill="#1565c0" d="M1047.417 626.782c-39.165 73.481-26.24 178.367-3.601 261.93 7.583 27.972 16.196 57.558 12.265 87.993-4.802 37.205-27.371 65.082-50.83 80.265-42.768 27.671-93.288 23.253-131.543-11.613-33.013-30.093-56.252-80.101-89.906-108.757-56.322-47.944-129.441-26.523-192.126 10.08-44.348 25.894-92.927 59.242-136.145 35.332-30.412-16.825-50.89-59.652-61.664-105.434-5.202-22.104-8.844-46.096-19.208-63.4-6.162-10.285-14.305-17.453-22.679-23.444-76.42-54.714-174.72-20.518-248.809-81.565-50.02-41.227-81.152-121.232-94.087-205.34-12.936-84.11-9.734-172.897-4.582-260.165 3.661-62.018 9.454-128.29 36.724-177.027C70.068 14.11 118.407-6.366 161.634 1.704c43.228 8.07 81.983 40.899 115.887 80.087 42.406 48.887 81.422 110.263 134.163 128.824 35.924 12.64 74.09 3.693 111.434-.26 62.425-6.593 124.63.999 186.455 9.575 59.183 8.207 118.777 17.372 174.83 44.277 39.665 19.04 71.108 55.029 108.452 79.623 24.34 16.03 51.12 19.751 74.03 40.46 28.271 25.511 53.821 70.705 45.528 124.94-7.833 51.554-44.188 78.555-64.996 117.552z"/></g><g><path fill="#e6e6e6" d="M879 829.499c.226 24.85-149.154 27.127-152 .001"/></g><g><path fill="#ffb9b9" d="M751 749.4l7 24.534L769 775l6-13.867L762 743z"/></g><g><path fill="#ffb9b9" d="M796 792v12l17-1.09-.237-9.884L796 792z"/></g><g><path fill="#2f2e41" d="M758 604l6.109 79.055L783.455 799 814 794.784l-10.181-91.703 4.072-84.324L758 604z"/></g><g><path fill="#2f2e41" d="M838.907 545l-72.816 1.055L758 604.083l49.556 24.266 12.136 46.422L758 743.349 782.272 775s34.386-48.532 59.67-75.963c25.283-27.432 13.147-110.78 13.147-110.78z"/></g><g><path fill="#ffb9b9" d="M795 395c12.15 0 22-10.297 22-23s-9.85-23-22-23-22 10.297-22 23 9.85 23 22 23z"/></g><g><path fill="#ffb9b9" d="M787 388.536v23.178L802.128 437s23.197-17.91 18.155-22.125C815.24 410.661 814.23 378 814.23 378z"/></g><g><path fill="#d0cde1" d="M787.246 407.558L772 426.495 778.099 558l47.77-1.052L834 442.276l-10.163-29.458-6.972-9.818-12.34 19.287-17.279-14.729z"/></g><g><path fill="#2f2e41" d="M763 475.353l-11 44.196 11 44.196L745 589l-16-79.974s12-65.242 13-72.608 3-8.418 3-8.418l8 1.052z"/></g><g><path fill="#2f2e41" d="M844 492.389l7 13.723 2 23.221-4 26.389L863 580l14-66.5-15-85.5h-6l-12 64.389z"/></g><g><path fill="#2f2e41" d="M757.856 743s-14.144 4.196-19.195 5.245c-5.052 1.049 3.03 20.98 3.03 20.98s5.052 27.273 6.062 32.518c1.01 5.244 8.083 23.077 17.175 25.175 9.092 2.098 3.03-36.714 3.03-36.714S772 777.616 772 773.42s-6.062-2.098-6.062-2.098c-16.164-2.098-8.082-28.322-8.082-28.322z"/></g><g><path fill="#2f2e41" d="M791.134 823.362c1.016 6.313-1.015 6.313 15.23 8.418 16.246 2.104 12.185-11.575 12.185-11.575a91.167 91.167 0 0 0-4.062-18.94c-3.046-8.419-19.291 2.104-19.291 2.104s-5.077 13.68-4.062 19.993z"/></g><g><path fill="#2f2e41" d="M814.84 378.684l.53 9.316s6.569-15.285 7.587-30.997c1.018-15.713-16.289-18.855-26.47-19.903-10.18-1.047-27.487 6.285-27.487 14.665 0 8.38 18.325 6.285 25.451 4.19 7.127-2.095 10.181 15.713 10.181 15.713l4.072 1.047z"/></g><g><path fill="#d0cde1" d="M781 414.354l5.928-7.354L804 421.538 786.928 434 781 414.354z"/></g><g><path fill="#d0cde1" d="M823 412.62l-7-9.62-12 19.241L819 434l4-21.38z"/></g><g><path fill="#2f2e41" d="M760.184 490.051l4.053 40.149-8.105 24.3-5.066 23.244s0 22.187 20.263 23.244c20.263 1.056 37.487-66.562 37.487-66.562s3.04 14.791 5.066 23.244c2.026 8.452 36.473 42.261 36.473 42.261s8.106-1.056 15.198-17.96c7.092-16.905-14.185-32.754-14.185-32.754l-6.079-22.187 2.027-27.47 14.184-71.844L819.454 405l4.56 60.75-15.198 47.545L786.02 408.17l-7.599 5.81L746 427.717z"/></g><g><path fill="#d0cde1" d="M475.529 269.855a180.599 180.599 0 0 0-11.896-.765l.06-2.09c4 .125 8.045.384 12.022.773zm-35.907-2.016c3.971-.403 8.015-.678 12.02-.818l.067 2.09c-3.963.138-7.965.41-11.893.808zm59.438 5.918a178.673 178.673 0 0 0-11.706-2.347l.314-2.065c3.953.655 7.934 1.453 11.832 2.372zm-82.762.152l-.447-2.038a181.279 181.279 0 0 1 11.834-2.416l.32 2.065a179.172 179.172 0 0 0-11.707 2.389zm105.61 6.879a179.584 179.584 0 0 0-11.31-3.902l.563-2.006a181.416 181.416 0 0 1 11.434 3.945zm-128.443.237l-.694-1.961c3.75-1.45 7.595-2.792 11.43-3.987l.57 2.004a179.342 179.342 0 0 0-11.306 3.944zm150.282 9.828a182.47 182.47 0 0 0-10.758-5.4l.808-1.913a184.689 184.689 0 0 1 10.874 5.458zm-172.02.287l-.929-1.852a184.972 184.972 0 0 1 10.831-5.483l.814 1.91a182.774 182.774 0 0 0-10.716 5.425zm192.415 12.618a186.744 186.744 0 0 0-9.994-6.794l1.035-1.789a188.145 188.145 0 0 1 10.1 6.867zm-212.75.333l-1.147-1.712a187.797 187.797 0 0 1 10.069-6.89l1.04 1.785a186.377 186.377 0 0 0-9.962 6.817zm231.414 15.183a190.447 190.447 0 0 0-9.09-8.068l1.246-1.636a192.42 192.42 0 0 1 9.185 8.155zm-251.359-1.166a191.76 191.76 0 0 1 9.16-8.179l1.25 1.633a189.814 189.814 0 0 0-9.063 8.092zm267.978 19.04a194.388 194.388 0 0 0-8.04-9.216l1.435-1.458c2.79 3 5.525 6.135 8.126 9.315zm-283.193.422l-1.523-1.354a195.297 195.297 0 0 1 8.093-9.334l1.439 1.453a193.823 193.823 0 0 0-8.009 9.235zm297.48 19.488a195.44 195.44 0 0 0-6.842-10.197l1.6-1.255a197.982 197.982 0 0 1 6.917 10.307zm-311.732.492l-1.677-1.14a198.29 198.29 0 0 1 6.895-10.34l1.603 1.25a195.972 195.972 0 0 0-6.821 10.23zm323.468 21.16c-1.72-3.714-3.58-7.422-5.531-11.022l1.738-1.031a199.35 199.35 0 0 1 5.589 11.14zm-335.165.57l-1.803-.907c1.735-3.77 3.61-7.533 5.575-11.182l1.743 1.026c-1.943 3.61-3.799 7.332-5.515 11.062zm344.161 22.48a200.52 200.52 0 0 0-4.142-11.685l1.851-.79a201.8 201.8 0 0 1 4.188 11.811zm-353.095.651l-1.9-.655a201.589 201.589 0 0 1 4.155-11.846l1.855.783a199.308 199.308 0 0 0-4.11 11.718zm359.18 23.423a201.865 201.865 0 0 0-2.675-12.135l1.938-.533a203.797 203.797 0 0 1 2.703 12.266zm-365.178.684l-1.964-.395a203.796 203.796 0 0 1 2.655-12.285l1.935.526a201.724 201.724 0 0 0-2.626 12.154zm368.247 24.025c-.26-4.133-.65-8.305-1.159-12.402l1.983-.269c.515 4.14.91 8.356 1.172 12.534zm-371.237.686l-1.996-.129c.248-4.175.628-8.394 1.128-12.539l1.985.262a205.255 205.255 0 0 0-1.117 12.406zm373.252 24.804l-1.988-.133c.248-4.116.373-8.304.373-12.445v-.458h1.991l.001.451c0 4.192-.127 8.424-.377 12.585zm-375.22.254c-.256-4.17-.389-8.41-.393-12.6l2-.003c.004 4.147.135 8.341.39 12.468zm372.177 24.738l-1.963-.396c.75-4.06 1.386-8.204 1.887-12.314l1.985.266a205.834 205.834 0 0 1-1.909 12.444zm-369.099.23a205.663 205.663 0 0 1-1.922-12.443l1.984-.267a203.574 203.574 0 0 0 1.901 12.31zm361.11 23.464a200.704 200.704 0 0 0 3.385-11.95l1.935.53a203.118 203.118 0 0 1-3.422 12.077zm-354.985.879a201.884 201.884 0 0 1-3.442-12.075l1.939-.53a199.34 199.34 0 0 0 3.404 11.943zm346.027 22.248a198.737 198.737 0 0 0 4.836-11.415l1.854.785a199.698 199.698 0 0 1-4.89 11.54zm-336.972 1.063a200.662 200.662 0 0 1-4.886-11.496l1.852-.786a199.075 199.075 0 0 0 4.835 11.371zm325.25 20.643a197.72 197.72 0 0 0 6.194-10.658l1.742 1.027a199.035 199.035 0 0 1-6.26 10.773zm-313.407 1.255a200.322 200.322 0 0 1-6.258-10.751l1.741-1.03a197.464 197.464 0 0 0 6.192 10.638zm300.654 20.064l-1.521-1.356a195.31 195.31 0 0 0 7.441-9.742l1.602 1.252a196.803 196.803 0 0 1-7.522 9.846zm-286.228.087a198.514 198.514 0 0 1-7.521-9.835l1.601-1.254a195.51 195.51 0 0 0 7.442 9.73zm268.124 16.453a191.93 191.93 0 0 0 8.563-8.67l1.436 1.454a193.939 193.939 0 0 1-8.653 8.764zm-251.356 1.62a194.427 194.427 0 0 1-8.66-8.758l1.435-1.456a192.69 192.69 0 0 0 8.57 8.667zm232.74 13.92c3.244-2.37 6.455-4.88 9.545-7.46l1.248 1.634a190.475 190.475 0 0 1-9.646 7.54zm-213.903 1.798a190.762 190.762 0 0 1-9.66-7.547l1.248-1.638a188.179 188.179 0 0 0 9.557 7.468zm194.482 12.981zm-.926-1.853a184.08 184.08 0 0 0 10.37-6.12l1.038 1.786a186.19 186.19 0 0 1-10.482 6.187zm-172.947 1.93a187.369 187.369 0 0 1-10.506-6.19l1.037-1.788a184.515 184.515 0 0 0 10.394 6.124zm151.887 10.12zm-.691-1.963a180.32 180.32 0 0 0 11.028-4.676l.811 1.911a182.314 182.314 0 0 1-11.148 4.727zm-129.142 2.044a183.09 183.09 0 0 1-11.186-4.729l.81-1.911a181.848 181.848 0 0 0 11.066 4.678zm106.745 7.084zm-.444-2.037a179.41 179.41 0 0 0 11.53-3.16l.57 2.005a181.156 181.156 0 0 1-11.656 3.192zm-83.204 2.09a181.433 181.433 0 0 1-11.658-3.18l.567-2.005a178.958 178.958 0 0 0 11.533 3.145zm59.873 3.94zm-.19-2.076c3.937-.393 7.915-.925 11.82-1.58l.32 2.058c-3.95.663-7.97 1.2-11.95 1.597zm-35.903 2.108a181.868 181.868 0 0 1-11.95-1.587l.315-2.064a180.07 180.07 0 0 0 11.824 1.57zm18.02.883c-1.996-.016-4.015-.03-5.997-.095l.061-2.09c1.962.063 3.968.092 5.936.094 1.976 0 3.99-.034 5.987-.1l.064 2.088c-2.02.068-4.055.103-6.052.103z"/></g><g><path fill="#1565c0" d="M459 282.947c-4.97-.02-8.99-4.173-9-9.295v-20.375c0-5.124 4.03-9.277 9-9.277s9 4.153 9 9.277v20.375c-.01 5.122-4.03 9.275-9 9.295zm20-10.526c0 10.44-7.906 19.044-17.572 20.578V304h-5.856v-10.996c-9.666-1.38-17.572-10.138-17.572-20.583h4.978c0 9.21 7.47 15.666 15.522 15.666 8.053 0 15.522-6.452 15.522-15.666zM458 322c25.957 0 47-21.938 47-49s-21.043-49-47-49-47 21.938-47 49 21.043 49 47 49z"/></g><g><path fill="#1565c0" d="M585 530c0-27.062 21.043-49 47-49s47 21.938 47 49-21.043 49-47 49-47-21.938-47-49zm45.21 26.224c.506-.497.79-1.171.79-1.874v-47.7c0-1.464-1.209-2.65-2.7-2.65h-3.6c-1.491 0-2.7 1.186-2.7 2.65v47.7c0 1.464 1.209 2.65 2.7 2.65h3.6c.716 0 1.403-.28 1.91-.776zM619 554.375v-15.75c0-1.45-1.209-2.625-2.7-2.625h-3.6c-1.491 0-2.7 1.175-2.7 2.625v15.75c0 1.45 1.209 2.625 2.7 2.625h3.6c1.491 0 2.7-1.175 2.7-2.625zm23-.042v-26.666c0-1.473-1.209-2.667-2.7-2.667h-3.6c-1.491 0-2.7 1.194-2.7 2.667v26.666c0 1.473 1.209 2.667 2.7 2.667h3.6c1.491 0 2.7-1.194 2.7-2.667zm12 .027v-38.72c0-1.458-1.209-2.64-2.7-2.64h-3.6c-1.491 0-2.7 1.182-2.7 2.64v38.72c0 1.458 1.209 2.64 2.7 2.64h3.6c1.491 0 2.7-1.182 2.7-2.64z"/></g><g><path fill="#1565c0" d="M303.864 526.715a.505.505 0 0 1 .136.347v23.08c0 4.34-3.338 7.858-7.455 7.858h-26.09c-4.117 0-7.455-3.518-7.455-7.857v-39.286c0-4.34 3.338-7.857 7.455-7.857h10.715c.124 0 .243.052.33.144a.505.505 0 0 1 .136.347v17.188c0 3.254 2.503 5.892 5.591 5.892h16.307c.124 0 .242.052.33.144zm-9.182 17.535c0-1.085-.835-1.964-1.864-1.964h-18.636c-1.03 0-1.864.88-1.864 1.964 0 1.085.835 1.964 1.864 1.964h18.636c1.03 0 1.864-.88 1.864-1.964zm8.251-21.665c.065.07.085.174.05.264a.23.23 0 0 1-.212.151h-14.93c-1.017 0-1.841-.872-1.841-1.949v-15.808c0-.099.056-.187.142-.225a.22.22 0 0 1 .25.053l16.541 17.514zm-8.251 11.844c0-1.085-.835-1.965-1.864-1.965h-18.636c-1.03 0-1.864.88-1.864 1.965 0 1.084.835 1.964 1.864 1.964h18.636c1.03 0 1.864-.88 1.864-1.964zM284 579c25.957 0 47-21.938 47-49s-21.043-49-47-49-47 21.938-47 49 21.043 49 47 49z"/></g></g></g></svg>