<svg xmlns="http://www.w3.org/2000/svg" width="1586" height="993" viewBox="0 0 1586 993"><g><g><g opacity=".1"><path fill="#1565c0" d="M1232.707 6.788l37.703 59.184a4.397 4.397 0 0 0 7.688-.51l27.494-59.204a4.411 4.411 0 0 0-.286-4.227A4.398 4.398 0 0 0 1301.593 0h-65.196a4.388 4.388 0 0 0-3.863 2.294 4.4 4.4 0 0 0 .173 4.494z"/></g><g opacity=".1"><path fill="#1565c0" d="M15.29 283.038l10.964-16.625a4.55 4.55 0 0 0 .256-4.55 4.368 4.368 0 0 0-3.784-2.414l-18.242-.448a4.35 4.35 0 0 0-3.74 1.977 4.551 4.551 0 0 0-.376 4.285l7.296 17.073a4.383 4.383 0 0 0 3.61 2.646 4.343 4.343 0 0 0 4.016-1.944z"/></g><g opacity=".1"><path fill="#1565c0" d="M926.226 849.19l-19.081 5.723c-1.558.465-2.73 1.716-3.055 3.263-.326 1.547.246 3.143 1.492 4.162l14.21 11.643a4.577 4.577 0 0 0 4.204.824c1.454-.438 2.579-1.564 2.981-2.988l4.872-17.376a4.238 4.238 0 0 0-1.216-4.23 4.569 4.569 0 0 0-4.407-1.021z"/></g><g opacity=".1"><path fill="#1565c0" d="M439.226 967.19l-19.081 5.723c-1.558.465-2.73 1.716-3.055 3.263-.326 1.547.246 3.143 1.492 4.162l14.21 11.643a4.577 4.577 0 0 0 4.204.824c1.455-.438 2.579-1.564 2.981-2.988l4.872-17.376a4.238 4.238 0 0 0-1.216-4.23 4.569 4.569 0 0 0-4.407-1.021z"/></g><g opacity=".1"><path fill="#1565c0" d="M98.226 906.19l-19.081 5.723c-1.558.465-2.73 1.716-3.055 3.263-.326 1.547.246 3.143 1.492 4.162l14.21 11.643a4.577 4.577 0 0 0 4.204.824c1.454-.438 2.579-1.564 2.981-2.988l4.872-17.376a4.238 4.238 0 0 0-1.216-4.23 4.569 4.569 0 0 0-4.407-1.021z"/></g><g opacity=".1"><path fill="#1565c0" d="M1580.226 20.19l-19.081 5.723c-1.558.465-2.73 1.716-3.055 3.263-.326 1.547.246 3.143 1.492 4.162l14.21 11.643a4.577 4.577 0 0 0 4.204.824c1.454-.438 2.579-1.564 2.981-2.988l4.872-17.376a4.238 4.238 0 0 0-1.216-4.23 4.569 4.569 0 0 0-4.407-1.021z"/></g><g opacity=".1"><path fill="#1565c0" d="M316.892 23.924l-1.872 19.324a4.328 4.328 0 0 0 1.895 3.998c1.32.891 3.025 1 4.45.285l16.246-8.211a4.332 4.332 0 0 0 2.37-3.452 4.315 4.315 0 0 0-1.673-3.832l-14.363-11.122a4.416 4.416 0 0 0-4.424-.56 4.346 4.346 0 0 0-2.629 3.57z"/></g><g opacity=".1"><path fill="#1565c0" d="M713.892 209.924l-1.872 19.324a4.328 4.328 0 0 0 1.895 3.998c1.32.891 3.025 1 4.45.285l16.246-8.211a4.332 4.332 0 0 0 2.37-3.452 4.315 4.315 0 0 0-1.673-3.832l-14.363-11.122a4.416 4.416 0 0 0-4.424-.56 4.346 4.346 0 0 0-2.629 3.57z"/></g></g></g></svg>