<svg xmlns="http://www.w3.org/2000/svg" width="1675" height="879" viewBox="0 0 1675 879"><g><g><g><path fill="#d0cde1" d="M1492.076 813.03h181.664v64.98h-181.664zM1674.78 811H1490v68.026h184.779z"/></g><g><path fill="#3f3d56" d="M1564.74 830.29l35.295 15.05-35.295 14.394V830.29z"/></g></g><g><g><path fill="#d0cde1" d="M1397.076 2.03h244.977v159.404h-244.977zM1643.102 0H1395v162.449h248.102z"/></g><g><path fill="#3f3d56" d="M1450.02 69.04h29.066v76.148h-29.066z"/></g><g><path fill="#3f3d56" d="M1504 97.47h30.104v46.704H1504z"/></g><g><path fill="#3f3d56" d="M1557.98 36.55h30.104v107.622h-30.104z"/></g><g><path fill="#3f3d56" d="M1519.052 83.254c8.313 0 15.052-6.591 15.052-14.722 0-8.13-6.739-14.722-15.052-14.722-8.313 0-15.052 6.591-15.052 14.722 0 8.13 6.74 14.722 15.052 14.722z"/></g></g><g><g><path fill="#d0cde1" d="M2.076 543.03H102.77v98.495H2.076zM103.808 541H0v101.53h103.808z"/></g><g><path fill="#3f3d56" d="M20.76 572.47h63.323v6.092H20.76z"/></g><g><path fill="#3f3d56" d="M20.76 589.73h63.323v5.077H20.76z"/></g><g><path fill="#3f3d56" d="M20.76 604.96h63.323v6.092H20.76z"/></g></g><g><g><path fill="#d0cde1" d="M150.076 70.03h98.608v44.674h-98.608zM249.732 68H148v47.72h101.732z"/></g><g><path fill="#3f3d56" d="M176.027 99.474c4.013 0 7.266-3.182 7.266-7.107 0-3.925-3.253-7.107-7.266-7.107-4.014 0-7.267 3.182-7.267 7.107 0 3.925 3.253 7.107 7.267 7.107z"/></g><g><path fill="#3f3d56" d="M198.867 99.474c4.013 0 7.266-3.182 7.266-7.107 0-3.925-3.253-7.107-7.266-7.107-4.014 0-7.267 3.182-7.267 7.107 0 3.925 3.253 7.107 7.267 7.107z"/></g><g><path fill="#3f3d56" d="M221.707 99.474c4.013 0 7.266-3.182 7.266-7.107 0-3.925-3.253-7.107-7.266-7.107-4.014 0-7.267 3.182-7.267 7.107 0 3.925 3.253 7.107 7.267 7.107z"/></g></g></g></svg>