<svg xmlns="http://www.w3.org/2000/svg" width="527" height="373" viewBox="0 0 527 373"><g><g><g><path fill="#f2f2f2" d="M0 77h476v296H0z"/></g><g><path fill="#3f3d56" d="M17.5 45.64h474v294h-474zm476-2h-478v298h478z"/></g><g><path fill="#65617d" d="M246.87 204.15s5.47-28.7 23.08-28.85l12.87 26.48-8.58 5.92s-18.64.59-27.37-3.55z"/></g><g opacity=".1"><path d="M282.82 201.78l-8.58 5.92s-13.12.42-22.5-1.89a26.92 26.92 0 0 1-4.87-1.66s0-.16.1-.46v-.11a64.76 64.76 0 0 1 3.33-10.54c.55-1.29 1.16-2.62 1.82-3.95 2.58-5 6.2-9.82 11.16-12.23a15.17 15.17 0 0 1 5.87-1.53h.78l.28.59 4.35 8.94z"/></g><g><path fill="#65617d" d="M428.98 321.02s18.5-1.77 20.12-.44c1.62 1.33 12.13 8.13 18.35 3.84 6.22-4.29 2.07-19.23 2.07-19.82 0-.59-.59-21.75-.59-21.75l-11.1-14.94-13.9-26.18-28.4-2.82.74 41.58-.15 21.3z"/></g><g opacity=".1"><path d="M428.98 321.02s18.5-1.77 20.12-.44c1.62 1.33 12.13 8.13 18.35 3.84 6.22-4.29 2.07-19.23 2.07-19.82 0-.59-.59-21.75-.59-21.75l-11.1-14.94-13.9-26.18-28.4-2.82.74 41.58-.15 21.3z"/></g><g><path fill="#fbbebe" d="M266.25 174.534s-1.48 18.05-12.72 18.34c0 0-3.19-1.92-7.48-5.12-9.88-7.39-25.55-21.6-21.22-34.82 6.21-18.93 36.39 16 36.39 16l2.31 2.6z"/></g><g opacity=".1"><path d="M266.25 174.54s-1.48 18.05-12.72 18.34c0 0-3.19-1.92-7.48-5.12l-.95-1.23a14.79 14.79 0 0 0 6.16 1.66 8.33 8.33 0 0 0 8-5.07 63.51 63.51 0 0 0 3.11-7.16 20.87 20.87 0 0 0 1.16-4.42z"/></g><g><path fill="#e7effd" d="M261.37 207.251l-2.53-3.26-8.52-11-4.34-5.61a14.62 14.62 0 0 0 6.16 1.66c2.83.07 6-1 8-5.06a64.62 64.62 0 0 0 3.11-7.17c1.4-4 1.38-6 .88-6.73-.5-.73 3.14 2.68 4.89 4.34l.06.06.82.77.3.6 4.29 8.57v.36c.42 2.75 1.87 20.02-13.12 22.47z"/></g><g><path fill="#3f3d56" d="M436.688 339.644H313.708c-.151-2.426-.928-3.208 0-5.454 1.48-3 2.07-12.72 2.07-12.72l14.21-32.55 7-28.7 93.93-.89s.35 2.49.92 7c.57 4.51 1.37 11.21 2.26 19.48.82 7.51 1.72 16.34 2.59 26.17 2.84 31.38 0 27.664 0 27.664z"/></g><g><path fill="#fbbebe" d="M424.84 89.931l-21.9 23.38s-28.1-11.25-25.14-15.09c1.14-1.49 1-6.19.3-11.37-1-8.2-3.26-17.63-3.26-17.63s49.11-8 45 .29c-1.51 3-1.25 6.56-.31 9.83a37 37 0 0 0 5.31 10.59z"/></g><g opacity=".1"><path d="M419.81 69.538c-1.51 3-2.23 3.32-1.29 6.59-6.42 6.87-14.59 14.41-24.75 14.41a35.06 35.06 0 0 1-15.67-3.67c-1-8.2-3.26-17.63-3.26-17.63s49.11-8 44.97.3z"/></g><g><path fill="#fbbebe" d="M428.99 54.42c-.324 19.218-15.995 34.627-35.215 34.627-19.22 0-34.891-15.409-35.215-34.626v-.5c.138-19.446 16.014-35.098 35.46-34.96 19.446.138 35.098 16.014 34.96 35.46z"/></g><g opacity=".1"><path d="M434.082 286.72c-4.66 0-20.19.17-37.55.44h-.21l-5.73.1h-.18c-20.58.33-40.87-3.69-49-2.93-17.3 1.62 6.22-16 6.22-16a144.78 144.78 0 0 0 39.43 4l5-.26c15.72-.89 31.53-2.37 39.79-4.85.55 4.58 1.34 11.23 2.23 19.5z"/></g><g><path fill="#5f5d7e" d="M434.082 285.83c-4.66 0-20.19.17-37.55.44h-.21l-5.73.1h-.18c-20.58.33-40.87-3.69-49-2.93-17.3 1.63 6.22-16 6.22-16a144.78 144.78 0 0 0 39.43 4l5-.26c15.72-.89 31.53-2.37 39.79-4.84.55 4.58 1.34 11.2 2.23 19.49z"/></g><g opacity=".1"><path d="M384.31 99.7l-27.22 12.73-21 162.43s12.42-5.62 19.53-2.07c7.11 3.55 29 .3 29 .3s16-.89 18.35.89c2.35 1.78 30.16-7.44 30.16-7.44s5-11.24 1.18-13c-3.82-1.76 1.22-19.21 1.22-19.21l-2.4-117.17-4.74-15.09-12.72-7.69-13 10.35-6.21.89z"/></g><g><path fill="#e7effd" d="M384.31 97.93l-27.22 12.72-21 162.44s12.42-5.62 19.53-2.07c7.11 3.55 29 .29 29 .29s16-.88 18.35.89c2.35 1.77 30.18-7.4 30.18-7.4s5-11.24 1.18-13c-3.82-1.76 1.2-19.26 1.2-19.26l-2.4-117.16-4.74-15.08-12.72-7.7-13 10.36-6.21.89z"/></g><g opacity=".1"><path d="M383.86 105.47s7.84 9.32 7.7 11.25c-.14 1.93-.45 6.51-.45 6.51l-5.92 12s-3.25 14.94-3.25 18.05c0 3.11-5.18 30-5.18 30l-6.23 41.43-7.84 54.3 8 13.75 9.46-8L392.73 188l2.66-19.08s2.81-34.32 2.81-37.87c0-3.55-1.62-12.87-1.62-12.87s1.92-8.88 9.91-11c7.99-2.12-.59-.45-.59-.45l-4.59-3.69-4 1.62s-11.08-3.33-13.45.81z"/></g><g><path fill="#1565c0" d="M382.97 104.59s7.85 9.32 7.7 11.24c-.15 1.92-.45 6.51-.45 6.51l-5.91 12s-3.26 14.94-3.26 18.05c0 3.11-5.18 30-5.18 30l-6.21 41.42-7.84 54.3 8 13.76 9.47-8 12.57-96.75 2.67-19.07s2.81-34.32 2.81-37.87c0-3.55-1.62-12.87-1.62-12.87s1.92-8.88 9.91-10.95c7.99-2.07-.59-.44-.59-.44l-4.59-3.7-4 1.63s-11.11-3.41-13.48.74z"/></g><g opacity=".1"><path d="M377.8 89.05s-1.19.89-1.48 6.81c-.29 5.92-4.44 19.23-4.44 19.23s15.39-10.65 23.08-9.47z"/></g><g><path fill="#e7effd" d="M377.8 87.28s-1.19.88-1.48 6.8c-.29 5.92-4.44 19.23-4.44 19.23s15.39-10.65 23.08-9.46z"/></g><g opacity=".1"><path d="M419.81 84.32l-24.28 21.3s20.42 12.13 23.08 15.09c2.66 2.96 5.32-29 5.32-29z"/></g><g><path fill="#e7effd" d="M420.7 82.54l-24.26 21.31s20.41 12.13 23.09 15.09c2.68 2.96 5.32-29 5.32-29z"/></g><g opacity=".1"><path d="M378.68 89.042s-2.66-1.33-5.17 2.52a16.8 16.8 0 0 1-7.25 5.62s-26.93 4.29-28 7.84l-12.58.74s-4.44.59-4.88 9.91c-.44 9.32-2.81 10.21-2.81 10.21s-5.18 9.17-4.73 13.9c.45 4.73-4 7.11-4 7.11l18.49 48.08s.6 19.82-2.81 27.07-9.76 39.35-9.76 39.35 2.66-.59 2.51 1.18c-.15 1.77-3.16 21.16-3.16 21.16s-.89 7.69-2.37 10.36c-1.48 2.67-1.63 16.56-1.63 16.56l-2.36 10.06s5.62 12.58 14.2 10.8c8.58-1.78 24.11-35.35 24.11-35.35l9.92-36.25 7.69-35.8 2.22-24.26 3.55-53.7 5.18-35.51s5.72-19.11 3.64-21.6z"/></g><g><path fill="#65617d" d="M377.8 87.273s-2.67-1.33-5.18 2.51a16.71 16.71 0 0 1-7.25 5.62s-26.92 4.29-28 7.84l-12.58.74s-4.43.6-4.88 9.92c-.45 9.32-2.81 10.2-2.81 10.2s-5.18 9.18-4.73 13.91c.45 4.73-4 7.1-4 7.1l18.5 48.08s.59 19.82-2.81 27.07-9.77 39.36-9.77 39.36 2.66-.6 2.52 1.18c-.14 1.78-3.26 21.15-3.26 21.15s-.89 7.7-2.37 10.36c-1.48 2.66-1.62 16.57-1.62 16.57l-2.37 10.06s5.62 12.57 14.2 10.8c8.58-1.77 24.14-35.36 24.14-35.36l9.91-36.24 7.69-35.8 2.22-24.27 3.55-53.7 5.18-35.5s5.79-19.09 3.72-21.6z"/></g><g opacity=".1"><path d="M282.82 201.78l-8.58 5.92s-13.12.42-22.5-1.89l-4.77-2.12-1-.42 1 .31c4.95 1.47 8.82 1.44 11.85.42 12.14-4.09 10.8-24.14 10.33-28.67 0-.46-.08-.75-.1-.86a.28.28 0 0 1 0-.06l.07.12c.168.273.355.534.56.78.17.19.35.39.54.58l4.29 8.57v.36z"/></g><g><path fill="#65617d" d="M312.53 143.94l-4.15 1.18-.59 8.43s-4.88-.74-6.21 5-3.7 8.44-3.7 8.44-8.14 6.8-8.58 12.57l-5 3.11s-11.69-2.67-14.35-7.4c0 0 5.33 38.17-23.08 28.85 0 0 31.81 13.9 33.29 15.83 1.48 1.93 11.24 7.54 20.12 2.81s10.8-12 10.8-12 8.58-12 8.87-13.76c.29-1.76 7-3.85 7-3.85l12.72-30.77z"/></g><g opacity=".1"><path d="M416.41 102.07l4.29-19.53s1.92 6.36 3.85 7.84l6.36 4.89s6.36 2.95 8.58 2.95c2.22 0 14.2 3.11 15.68 4.74 1.48 1.63 7.4.44 7.4.44s4.88 1.63 9.17 2.66c4.29 1.03 6.36 8.14 5.47 11a8.53 8.53 0 0 0 2.07 8c1.78 1.78 2.67 7.55 2.67 7.55a8.66 8.66 0 0 1 5 4.29c1.48 3.25 1 10.35 1 10.35l-22 31.07s.29 12-.59 14.65c-.88 2.65 3.1 47.93 3.1 47.93l4.59 77.81s-6.07 5.18-7.4 5.77c-1.33.59-2.66-27.51-2.66-28.55 0-1.04-34.17-51.19-34.17-51.19s-4.59-7.39-4.59-9c0-1.61-4.29-16.57-4.29-16.57l-6.51-28.85z"/></g><g><path fill="#65617d" d="M489.84 145.54v1.7l-22 31s.3 12-.58 14.64c-.52 1.55.61 17.47 1.66 30.55.74 9.43 1.44 17.38 1.44 17.38l1.95 33 2.63 44.8s-6.06 5.18-7.39 5.77c-1.33.59-2.66-27.51-2.66-28.55 0-1.04-34.18-51.18-34.18-51.18s-4.59-7.41-4.59-9c0-1.59-4.29-16.57-4.29-16.57l-6.5-28.85 2.95-88.17 2.42-19.52s3.7 6.37 5.62 7.84l6.36 4.88s6.36 3 8.58 3c2.22 0 14.21 3.1 15.69 4.73 1.48 1.63 7.39.44 7.39.44s4.88 1.63 9.17 2.66c4.29 1.03 6.37 8.14 5.48 11a8.51 8.51 0 0 0 2.07 8c1.77 1.77 2.66 7.54 2.66 7.54a8.7 8.7 0 0 1 5 4.3c1.06 2.15 1.16 6.26 1.12 8.61z"/></g><g opacity=".1"><path d="M372.77 333.146c1 0 17.16-5.32 22.78-3a37.49 37.49 0 0 0 12.57 2.39z"/></g><g><path fill="#3f3d56" d="M396.32 286.27l-5.73.1h-.18l-3.36-14.91 5-.27z"/></g><g><path fill="#fbbebe" d="M466.116 268.21l-3.69 3-12.29 10.13s-33.29 17.76-42.46.89c-8.08-14.86 29.66-25.47 38.75-27.78 1.23-.31 1.93-.47 1.93-.47z"/></g><g opacity=".1"><path d="M323.95 122.78s6.51 3 8 7.1"/></g><g opacity=".1"><path d="M303.83 167.16s-9.47 11.54-5.62 16"/></g><g opacity=".1"><path d="M473.07 129.29s-8.88.89-9.17 8.58"/></g><g opacity=".1"><path d="M390.82 250.597c.88-.89 21.3-31.07 26-28.4"/></g><g opacity=".1"><path d="M428.99 54.42a35 35 0 0 1-4.17 16.62l-.26-.05c-2.23-.47-3.39-3.07-5.1-4.69a6.93 6.93 0 0 0-8-1.12 8.13 8.13 0 0 0-3.92 7.59c-1.13-4.74-.77-9.77-1.87-14.52s-4.41-9.55-8.95-9.63c-2 0-4.23.71-5.65-.75-.85-.88-1-2.27-1.66-3.35-3.24-5.24-13.11-2.59-17.14.1-4.03 2.69-8.7 7-13.71 9.3.138-19.445 16.014-35.097 35.46-34.96 19.446.139 35.098 16.015 34.96 35.46z"/></g><g><path fill="#7c5c5c" d="M389.42 43.642c.64 1.07.81 2.46 1.66 3.34 1.41 1.47 3.7.71 5.65.75 4.54.08 7.85 4.88 8.95 9.63 1.1 4.75.74 9.78 1.87 14.52a8.11 8.11 0 0 1 3.93-7.59 6.93 6.93 0 0 1 8 1.12c1.71 1.62 2.87 4.22 5.1 4.69 2.23.47 4.38-1.67 5.19-4 .81-2.33.75-4.93 1.28-7.37 1-4.61 4-8.4 5.68-12.79a23.17 23.17 0 0 0-.15-16.52c-1.11-2.78-2.76-5.28-3.89-8.05-1.7-4.22-2.14-9-4.22-13-3.48-6.73-11.68-10.09-18.43-7.56-3.21 1.2-6 3.54-9.27 4.59-4.37 1.41-9.05.35-13.57-.28s-9.53-.69-13.17 2.28c-4.19 3.43-5.33 9.87-9.27 13.63-1.65 1.58-3.7 2.59-5.44 4-1.74 1.41-3.25 3.63-3 6 .26 3.06 3.26 5.84 2.15 8.68a7 7 0 0 1-1.64 2.17 30.93 30.93 0 0 0-7.16 12.18c7.91 2.48 16.48-6.25 22.68-10.38 3.97-2.63 13.83-5.29 17.07-.04z"/></g><g opacity=".1"><path d="M466.12 268.21l-3.69 3c-3.25-5.4-16.58-16.2-16.58-16.2l.58-.56c1.23-.31 1.93-.47 1.93-.47z"/></g><g><path fill="#e7effd" d="M469.67 262.73s-1.33 3.3-2.69 6.14c-1.36 2.84-2.86 5.44-2.93 3.33-.15-4.14-17.31-18.05-17.31-18.05l2.33-2.26 2.69-2.62z"/></g><g opacity=".1"><path d="M470.26 240.83l1.95 33c-4.6-7.15-17.22-25.47-25.33-24.88l19.65-22.61a26.81 26.81 0 0 0 2.26-2.89c.74 9.43 1.47 17.38 1.47 17.38z"/></g><g opacity=".1"><path d="M469.67 262.73s-1.33 3.3-2.69 6.14c-5.16-7.07-12.25-15.42-17.91-17l2.69-2.62z"/></g><g><path fill="#65617d" d="M484.46 143.05l5.33 4.14s8.87.15 9.76 7.55c.89 7.4 9 10.8 9 10.8s6.06 6.06 6.06 8.87c0 2.81 4.59 7.84 4.59 8.29 0 .45 4.44 9.47 3.84 11.09-.6 1.62 4.74 8.73 3.11 11.39a65.63 65.63 0 0 0-3.55 7.4s-6.95 13.32-10.5 15.83-19.83 23.67-19.83 23.67-17.45 20.12-17.45 26.33c0 0-17-28.4-27.08-27.66l19.68-22.64s3.4-3.69 3.55-5.91c.15-2.22 9.47-12.43 13.91-12.87 0 0 .73-6.07-1.19-6.22-1.92-.15-3.55-4.88-3.55-4.88s-13-15.38-13.17-25.15c-.17-9.77 17.49-30.03 17.49-30.03z"/></g><g opacity=".1"><path d="M492.303 157.1s-12.42 9.18-9.76 12.13"/></g><g opacity=".1"><path d="M492.89 194.979s23.08-7.4 25.45 0"/></g><g opacity=".1"><path d="M330.09 155.33s0 33.73-2.89 37.06"/></g><g opacity=".1"><path d="M463.45 166.2l4.29 12.06"/></g><g><path d="M358.845 36.89c1.08-2.78-1.76-5.5-2.13-8.48a5.56 5.56 0 0 0-.47 2.68c.19 2.24 1.84 4.33 2.28 6.41a4 4 0 0 0 .32-.61z"/></g><g><path d="M407.95 68.743c-1.06-4.66-.75-9.6-1.83-14.27s-4.41-9.55-8.94-9.63c-2 0-4.24.72-5.65-.74-.86-.88-1-2.28-1.67-3.35-3.24-5.25-13.1-2.59-17.14.1-6 4-14.36 12.43-22.12 10.53-.37.89-.71 1.8-1 2.73 7.91 2.48 16.48-6.25 22.68-10.38 4-2.68 13.9-5.34 17.14-.09.64 1.07.81 2.46 1.66 3.34 1.41 1.47 3.7.71 5.65.75 4.54.08 7.85 4.88 8.95 9.63 1.1 4.75.74 9.78 1.87 14.52a8.16 8.16 0 0 1 .4-3.14z"/></g><g><path d="M430.193 63.202c-.8 2.34-2.91 4.5-5.19 4-2.28-.5-3.39-3.07-5.09-4.7a7 7 0 0 0-8-1.11 8.06 8.06 0 0 0-3.93 7.16 7.76 7.76 0 0 1 3.49-4.28 6.93 6.93 0 0 1 8 1.12c1.71 1.62 2.87 4.22 5.1 4.69 2.23.47 4.38-1.67 5.19-4a20.21 20.21 0 0 0 .81-4.25c-.097.464-.224.922-.38 1.37z"/></g><g><path d="M437.15 43.05c-1.66 4.39-4.68 8.17-5.68 12.79-.2.93-.32 1.88-.43 2.84 1-4.6 4-8.37 5.67-12.75a22.81 22.81 0 0 0 1.37-6.13 22.39 22.39 0 0 1-.93 3.25z"/></g><g><path fill="#e6e8ec" d="M223.36 150.17a.36.36 0 1 0 0-.72.36.36 0 0 0 0 .72z"/></g><g transform="rotate(25 140 229.5)"><path fill="#3f3d56" d="M207.957 226c-.148.116-15.138 11.708-39.137 18.344-21.692 6-55.337 9.019-93.34-10.004l8.46-6.96c-6.965 1.32-16.634.802-23.94-.44 4.715 5.62 9.962 13.614 12.242 20.21l1.982-10.736c16.86 8.464 34.261 13.397 51.76 14.647 3.001.215 6.007.322 9.016.322a129.22 129.22 0 0 0 34.586-4.753c24.443-6.78 39.746-18.632 39.898-18.75z"/></g></g></g></svg>