<svg xmlns="http://www.w3.org/2000/svg" width="1719" height="963" viewBox="0 0 1719 963"><g><g><g transform="rotate(-21.144 1305.5 417)"><path fill="#1565c0" d="M1290.35 402.23h30.913v29.842h-30.913z"/></g><g><path fill="#3f3d56" d="M1280.794 406.616l27.321-10.564 10.201 26.368-27.321 10.564zM1309.059 394l-30.349 11.738 11.331 29.298 30.349-11.738z"/></g><g transform="rotate(71.027 62.5 943)"><path fill="#1565c0" d="M47.68 927.72h30.913v29.842H47.68z"/></g><g><path fill="#3f3d56" d="M74.61 918.05l9.521 27.694-26.735 9.192-9.522-27.695zm11.536 28.722L75.566 916 45.86 926.213l10.58 30.772z"/></g><g transform="rotate(71.027 1524 50)"><path fill="#1565c0" d="M1508.82 34.72h30.913v29.842h-30.913z"/></g><g><path fill="#3f3d56" d="M1535.75 25.05l9.521 27.694-26.735 9.192-9.522-27.695zm11.536 28.722L1536.706 23 1507 33.213l10.58 30.772z"/></g><g transform="rotate(71.027 1695 277)"><path fill="#1565c0" d="M1679.82 261.72h30.913v29.842h-30.913z"/></g><g><path fill="#3f3d56" d="M1706.75 252.05l9.521 27.694-26.735 9.192-9.522-27.695zm11.536 28.722L1707.706 250 1678 260.213l10.58 30.772z"/></g><g transform="rotate(71.027 20 27)"><path fill="#1565c0" d="M4.82 11.72h30.913v29.842H4.82z"/></g><g><path fill="#3f3d56" d="M31.75 2.05l9.521 27.694-26.735 9.192L5.014 11.24zm11.536 28.722L32.706 0 3 10.213l10.58 30.772z"/></g><g transform="rotate(71.027 124 437)"><path fill="#1565c0" d="M108.82 421.72h30.913v29.842H108.82z"/></g><g><path fill="#3f3d56" d="M135.75 412.05l9.521 27.694-26.735 9.192-9.522-27.695zm11.536 28.722L136.706 410 107 420.213l10.58 30.772z"/></g><g transform="rotate(71.027 1073 919)"><path fill="#1565c0" d="M1057.82 903.72h30.913v29.842h-30.913z"/></g><g><path fill="#3f3d56" d="M1084.75 894.05l9.521 27.694-26.735 9.192-9.522-27.695zm11.536 28.722L1085.706 892 1056 902.213l10.58 30.772z"/></g></g></g></svg>