<svg xmlns="http://www.w3.org/2000/svg" width="609" height="823" viewBox="0 0 609 823"><g><g><g opacity=".1" transform="rotate(90 304.5 411.5)"><path fill="#1565c0" d="M706.501 604.682c-3.47 9.394-28.107 35.75-49.297 52.133-21.19 16.383-62.98 20.711-100.781 26.33-37.802 5.62-137.517 22.69-281.622 32.385-144.105 9.694-346.482-133.182-319.998-179.385 47.657-83.21 28.188-195.53-26.299-275.13-87.527-127.956 6.713-151.177 68.879-153.868 23.918-1.017 47.775 3.256 70.056 12.55 28.72 11.996 81.212 30.326 149.6 38.737 2.244.273 4.505.538 6.797.828a597.452 597.452 0 0 0 108.974 2.169c1.068-.067 2.136-.15 3.228-.232a595.427 595.427 0 0 0 106.588-18.09c2.269-.604 4.506-1.175 6.728-1.754 116.661-29.597 224.2 71.28 197.312 185.278-9.94 42.163-7.414 87.109 25.727 123.469 54.261 59.317 47.689 117.756 34.108 154.58z"/></g><g><path fill="#f2f2f2" d="M298.157 606.666c-121.48-9.238-266.352-103.299-258.976-200.15 7.375-96.85 147.684-187.01 269.165-177.772 121.48 9.238 191.409 190.235 184.033 287.086-7.375 96.851-72.742 100.074-194.222 90.836z"/></g><g><path fill="#3f3d56" d="M39.91 267.97a3.88 3.88 0 0 1 3.88-3.88h222.24a3.88 3.88 0 0 1 3.88 3.88v230.24a3.88 3.88 0 0 1-3.88 3.88H43.79a3.88 3.88 0 0 1-3.88-3.88z"/></g><g/><g><path fill="#3f3d56" d="M291.91 264.97a3.88 3.88 0 0 1 3.88-3.88h222.24a3.88 3.88 0 0 1 3.88 3.88v88.24a3.88 3.88 0 0 1-3.88 3.88H295.79a3.88 3.88 0 0 1-3.88-3.88z"/></g><g><path fill="#ff6584" d="M385.91 335.09h-26.637a88.794 88.794 0 0 1 0-31h26.637a54.5 54.5 0 0 0 0 31z"/></g><g><path fill="#ff6584" d="M458.91 335.09h-26.637a88.794 88.794 0 0 1 0-31h26.637a54.5 54.5 0 0 0 0 31z"/></g><g><path fill="#1565c0" d="M348.91 314.09h-26.637a88.794 88.794 0 0 1 0-31h26.637a54.5 54.5 0 0 0 0 31z"/></g><g><path fill="#1565c0" d="M394.91 314.09h26.637a88.795 88.795 0 0 0 0-31H394.91a54.5 54.5 0 0 1 0 31z"/></g><g><path fill="#1565c0" d="M465.91 314.09h26.637a88.795 88.795 0 0 0 0-31H465.91a54.5 54.5 0 0 1 0 31z"/></g><g><path fill="#3f3d56" d="M477.91 607.234c0 10.055-46.589 29.856-103.75 29.856s-103.25-19.801-103.25-29.856c0-10.054 46.089-6.554 103.25-6.554s103.75-3.5 103.75 6.554z"/></g><g opacity=".1"><path d="M477.91 607.234c0 10.055-46.589 29.856-103.75 29.856s-103.25-19.801-103.25-29.856c0-10.054 46.089-6.554 103.25-6.554s103.75-3.5 103.75 6.554z"/></g><g><path fill="#3f3d56" d="M374.41 626.09c57.161 0 103.5-8.059 103.5-18s-46.339-18-103.5-18-103.5 8.059-103.5 18 46.339 18 103.5 18z"/></g><g opacity=".1"><path d="M375.41 622.09c45.011 0 81.5-6.268 81.5-14s-36.489-14-81.5-14-81.5 6.268-81.5 14 36.489 14 81.5 14z"/></g><g><path fill="#1565c0" d="M339.91 500.09h-26.637a88.794 88.794 0 0 1 0-31h26.637a54.5 54.5 0 0 0 0 31z"/></g><g><path fill="#575a89" d="M421.807 343.09l3.648 1.781s19.761 48.39 13.073 59.969c-6.688 11.578-27.666 33.25-27.666 33.25l-3.952-10.984 16.164-34.22z"/></g><g opacity=".1"><path d="M421.807 343.09l3.648 1.781s19.761 48.39 13.073 59.969c-6.688 11.578-27.666 33.25-27.666 33.25l-3.952-10.984 16.164-34.22z"/></g><g><path fill="#f2f2f2" d="M417.716 586.09s5.109 12.133 2.404 13.067c-2.705.933-6.01.933-9.317.933-3.306 0-7.212-1.244-7.814-2.489-.6-1.244 2.405-9.333 2.405-9.333z"/></g><g><path fill="#f2f2f2" d="M349.668 593.086s3.377 9.98 1.842 10.55c-1.535.57-6.447 3.136-9.21 2.281-2.762-.855-7.06-2.851-7.98-3.707-.922-.855 0-5.417 0-5.417l4.297-5.703z"/></g><g><path fill="#2f2e41" d="M407.598 437.137l4.25 1.493s1.087 10.155-.099 13.74c-1.186 3.583-3.855 29.568-2.372 34.944 1.483 5.376.593 14.038.593 14.038s8.896 29.27 7.117 35.542c-1.78 6.273-1.483 15.233.297 19.713 1.779 4.48 3.262 6.272 2.372 9.856-.89 3.584-2.669 5.377-.89 8.363 1.78 2.987 5.338 3.883 3.56 6.571-1.78 2.688-3.56 4.779-2.966 6.571.593 1.792-15.718 5.078-17.2 2.39 0 0 4.744-4.182 0-6.571-4.745-2.39-3.262-11.35-3.262-11.35s-8.304-34.348-8.007-37.036c.296-2.688-13.049-44.503-13.049-44.503s-19.572 59.736-20.758 62.424c-1.186 2.688 1.483 9.259 0 11.05-1.483 1.793.593 6.273-1.483 8.065-2.076 1.792 3.559 8.363 0 10.752-3.559 2.39-5.338 9.857-5.041 11.35.296 1.493-14.828-.299-14.828-2.39 0-2.09.297-3.882-1.186-7.466-1.483-3.585-2.373-5.974-1.186-7.169 1.186-1.194 2.076-2.688.89-6.87-1.187-4.18 1.779-17.024.889-19.413-.89-2.39-.593-18.518-.593-18.518s2.965-23.595 2.076-27.478c-.89-3.883 0-4.779.296-6.272.297-1.494 2.076-17.622 3.262-20.012 1.187-2.39 2.67-43.308 9.49-45.398 6.82-2.091 57.828 3.584 57.828 3.584z"/></g><g><path fill="#2f2e41" d="M409.851 597.228s10.588-1.83 11.177 0c.588 1.83 2.353 16.164-1.765 16.469-4.118.305-11.177 1.22-12.353-1.525-1.176-2.745-6.765-4.575-6.765-4.575s-8.235-2.44-8.235-5.185c0-2.744.294-7.014 1.765-7.319 1.47-.305 7.353-3.66 7.353-4.88 0-1.22 8.823 7.015 8.823 7.015z"/></g><g><path fill="#2f2e41" d="M342.998 602.098s7.786-2.376 9.582-.891c1.797 1.484 4.193 17.815 0 17.519-4.192-.297-15.272 1.484-15.87-.891-.6-2.376-8.685-2.97-8.685-2.97s-8.684-4.157-8.085-8.61c.599-4.454 1.497-5.939 5.09-6.236 3.594-.297 6.289-4.454 6.588-4.75.3-.298 2.94-2.468 3.267-.047.327 2.422 4.22 7.766 8.113 6.876z"/></g><g><path fill="#ffb9b9" d="M367.41 313.09c10.217 0 18.5-8.283 18.5-18.5s-8.283-18.5-18.5-18.5-18.5 8.283-18.5 18.5 8.283 18.5 18.5 18.5z"/></g><g><path fill="#ffb9b9" d="M383.69 298.09s1.203 20.354 5.717 22.177c4.515 1.823-22.872 1.823-22.872 1.823s-.301-12.76-4.214-15.797c-3.912-3.038 21.368-8.203 21.368-8.203z"/></g><g><path fill="#575a89" d="M390.54 315.263s-18.529-6.906-25.104 3.903c0 0-20.92 9.909-22.415 15.914-1.494 6.005 12.553 51.042 12.553 51.042s0 37.23-2.99 41.134c-2.988 3.903-8.666 8.107-4.78 9.008 3.884.9 64.853 7.506 64.554 3.603-.3-3.904-4.184-7.206 0-9.608s.597-5.105 3.287-12.911c2.69-7.807 9.265-72.36 9.265-72.36s-4.483-8.107-5.38-9.008c-.896-.9-28.99-20.717-28.99-20.717z"/></g><g><path fill="#ffb9b9" d="M336.675 447.09s-11.886 26.15-1.524 29.716c10.362 3.566 9.752-27.636 9.752-27.636z"/></g><g><path fill="#2f2e41" d="M376.075 297.763c-1.058-2.115-2.642-4.556-5.009-4.427-1.196.065-2.228.808-3.295 1.353-1.066.546-2.433.884-3.408.189-1.426-1.017-.984-3.427-2.26-4.626-1.393-1.31-4.194-.579-5.093-2.264-.48-.9-.092-2.016-.302-3.014-1.457.027-2.962.047-4.313-.5-1.352-.546-2.522-1.812-2.484-3.266.082-1.001.564-1.927 1.337-2.569 1.84-1.669 4.502-1.989 6.772-3.001 1.807-.806 3.378-2.06 5.154-2.932 3.057-1.5 6.583-1.79 9.98-1.532 5.149.393 10.357 2.098 14.09 5.656 3.735 3.56 5.711 9.174 4.101 14.069-.913 2.774-2.847 5.105-3.926 7.819a27.311 27.311 0 0 0-1.368 5.735l-.757 4.637c.117-.722-1.471-2.532-1.992-2.963-1.137-.94-2.79-.62-3.845-1.49-1.56-1.288-2.463-5.039-3.382-6.874z"/></g><g opacity=".1"><path d="M349.795 333.261l-4.724 2.99s-7.676 46.926-6.79 53.502c.885 6.575-3.543 43.638-2.067 46.627 1.476 2.99 2.067 3.587 2.067 5.38 0 1.794-4.134 8.37-1.477 9.565 2.658 1.196 12.4 3.288 12.4 0s-1.77-7.771 1.477-9.863c3.248-2.093 5.61-15.543 5.61-15.543s1.476-13.75 2.952-16.44c1.477-2.69 3.543-12.553 3.543-16.737 0-4.185 3.543-21.222 1.477-29.89-2.067-8.668-2.658-31.982-14.468-29.59z"/></g><g><path fill="#575a89" d="M347.795 333.261l-4.724 2.99s-7.676 46.926-6.79 53.502c.885 6.575-3.543 43.638-2.067 46.627 1.476 2.99 2.067 3.587 2.067 5.38 0 1.794-4.134 8.37-1.477 9.565 2.658 1.196 12.4 3.288 12.4 0s-1.77-7.771 1.477-9.863c3.248-2.093 5.61-15.543 5.61-15.543s1.476-13.75 2.952-16.44c1.477-2.69 3.543-12.553 3.543-16.737 0-4.185 3.543-21.222 1.477-29.89-2.067-8.668-2.658-31.982-14.468-29.59z"/></g><g><path fill="#fff" d="M52.91 364.31a5.51 5.51 0 0 1 5.51-5.51H251.4a5.51 5.51 0 0 1 5.51 5.51v108.267a5.51 5.51 0 0 1-5.51 5.51H58.42a5.51 5.51 0 0 1-5.51-5.51z"/></g><g><path fill="#1565c0" d="M65.92 402.62h1.625v31.648H65.92z"/></g><g><path fill="#1565c0" d="M70.79 396.94h1.625v43.008H70.79z"/></g><g><path fill="#1565c0" d="M74.86 392.88h1.625v51.123H74.86z"/></g><g><path fill="#1565c0" d="M78.92 383.14h1.625v70.598H78.92z"/></g><g><path fill="#1565c0" d="M82.98 392.88h1.625v51.934H82.98z"/></g><g><path fill="#1565c0" d="M87.86 396.94h1.625v43.008H87.86z"/></g><g><path fill="#1565c0" d="M91.92 402.62h1.625v31.648H91.92z"/></g><g><path fill="#1565c0" d="M95.99 408.3h1.625v21.098H95.99z"/></g><g><path fill="#1565c0" d="M100.86 402.62h1.625v31.648h-1.625z"/></g><g><path fill="#1565c0" d="M104.93 390.45h1.625v56.803h-1.625z"/></g><g><path fill="#1565c0" d="M108.99 375.03h1.625v87.64h-1.625z"/></g><g><path fill="#1565c0" d="M113.06 380.71h1.625v75.467h-1.625z"/></g><g><path fill="#1565c0" d="M117.93 390.45h1.625v56.803h-1.625z"/></g><g><path fill="#1565c0" d="M122 396.94h1.625v43.008H122z"/></g><g><path fill="#1565c0" d="M126.06 402.62h1.625v31.648h-1.625z"/></g><g><path fill="#1565c0" d="M130.12 408.3h1.625v21.098h-1.625z"/></g><g><path fill="#1565c0" d="M135 402.62h1.625v31.648H135z"/></g><g><path fill="#1565c0" d="M139.06 396.94h1.625v43.008h-1.625z"/></g><g><path fill="#1565c0" d="M143.13 390.45h1.625v56.803h-1.625z"/></g><g><path fill="#1565c0" d="M147.19 396.94h1.625v43.008h-1.625z"/></g><g><path fill="#1565c0" d="M152.07 408.3h1.625v21.098h-1.625z"/></g><g><path fill="#1565c0" d="M156.13 402.62h1.625v31.648h-1.625z"/></g><g><path fill="#1565c0" d="M161.01 396.94h1.625v43.008h-1.625z"/></g><g><path fill="#1565c0" d="M165.07 392.88h1.625v51.123h-1.625z"/></g><g><path fill="#1565c0" d="M169.14 383.14h1.625v70.598h-1.625z"/></g><g><path fill="#1565c0" d="M173.2 392.88h1.625v51.934H173.2z"/></g><g><path fill="#1565c0" d="M178.08 396.94h1.625v43.008h-1.625z"/></g><g><path fill="#1565c0" d="M182.14 402.62h1.625v31.648h-1.625z"/></g><g><path fill="#1565c0" d="M186.2 408.3h1.625v21.098H186.2z"/></g><g><path fill="#1565c0" d="M190.27 402.62h1.625v31.648h-1.625z"/></g><g><path fill="#1565c0" d="M195.14 390.45h1.625v56.803h-1.625z"/></g><g><path fill="#1565c0" d="M199.21 375.03h1.625v87.64h-1.625z"/></g><g><path fill="#1565c0" d="M203.27 380.71h1.625v75.467h-1.625z"/></g><g><path fill="#1565c0" d="M207.33 390.45h1.625v56.803h-1.625z"/></g><g><path fill="#1565c0" d="M212.21 396.94h1.625v43.008h-1.625z"/></g><g><path fill="#1565c0" d="M216.28 402.62h1.625v31.648h-1.625z"/></g><g><path fill="#1565c0" d="M220.34 408.3h1.625v21.098h-1.625z"/></g><g><path fill="#1565c0" d="M225.22 402.62h1.625v31.648h-1.625z"/></g><g><path fill="#1565c0" d="M229.28 396.94h1.625v43.008h-1.625z"/></g><g><path fill="#1565c0" d="M233.34 390.45h1.625v56.803h-1.625z"/></g><g><path fill="#1565c0" d="M237.41 396.94h1.625v43.008h-1.625z"/></g><g><path fill="#1565c0" d="M242.28 408.3h1.625v21.098h-1.625z"/></g><g><path fill="none" stroke="#f86d70" stroke-miterlimit="20" d="M170.356 358.8v119.287"/></g><g><path fill="#1565c0" d="M71.5 348.42c0-.823.667-1.49 1.49-1.49h14.211c.823 0 1.49.667 1.49 1.49v3.593a1.49 1.49 0 0 1-1.49 1.49H72.99a1.49 1.49 0 0 1-1.49-1.49z"/></g><g><path fill="#1565c0" d="M101.39 348.42c0-.823.667-1.49 1.49-1.49h14.211c.823 0 1.49.667 1.49 1.49v3.593a1.49 1.49 0 0 1-1.49 1.49H102.88a1.49 1.49 0 0 1-1.49-1.49z"/></g><g><path fill="#1565c0" d="M131.29 348.42c0-.823.667-1.49 1.49-1.49h14.211c.823 0 1.49.667 1.49 1.49v3.593a1.49 1.49 0 0 1-1.49 1.49H132.78a1.49 1.49 0 0 1-1.49-1.49z"/></g><g><path fill="#1565c0" d="M161.19 348.42c0-.823.667-1.49 1.49-1.49h14.211c.823 0 1.49.667 1.49 1.49v3.593a1.49 1.49 0 0 1-1.49 1.49H162.68a1.49 1.49 0 0 1-1.49-1.49z"/></g><g><path fill="#1565c0" d="M191.09 348.42c0-.823.667-1.49 1.49-1.49h14.211c.823 0 1.49.667 1.49 1.49v3.593a1.49 1.49 0 0 1-1.49 1.49H192.58a1.49 1.49 0 0 1-1.49-1.49z"/></g><g><path fill="#1565c0" d="M220.98 348.42c0-.823.667-1.49 1.49-1.49h14.211c.823 0 1.49.667 1.49 1.49v3.593a1.49 1.49 0 0 1-1.49 1.49H222.47a1.49 1.49 0 0 1-1.49-1.49z"/></g><g opacity=".2"><path fill="#1565c0" d="M91.92 283.97a3.88 3.88 0 0 1 3.88-3.88h119.029a3.88 3.88 0 0 1 3.88 3.88v36.06a3.88 3.88 0 0 1-3.88 3.88H95.8a3.88 3.88 0 0 1-3.88-3.88z"/></g></g></g></svg>