<svg xmlns="http://www.w3.org/2000/svg" width="1925" height="348" viewBox="0 0 1925 348"><g><g><g><path fill="#3f3d56" d="M0 0h1925v348H0z"/></g><g><path fill="#f2f2f2" d="M564.206 197.205l-2.276-2.853c.226-.18 23.036-18.169 59.47-28.458a188.16 188.16 0 0 1 64.991-6.724c27.148 1.975 54.142 9.987 80.23 23.815l-1.708 3.225c-58.04-30.765-109.54-26.12-142.521-16.804-35.733 10.091-57.965 27.623-58.186 27.799z"/></g><g><path fill="#f2f2f2" d="M784.746 195.782c-10.891-1.882-25.304-2.67-35.686-.666l14.146-11.85 3.29-18.156c3.4 10.012 11.22 22.144 18.25 30.672z"/></g><g><path fill="#f2f2f2" d="M937.502 232.874a189.387 189.387 0 0 1-51.552-7.213c-36.434-10.29-59.244-28.279-59.47-28.458l2.276-2.853c.221.176 22.564 17.77 58.335 27.841 32.95 9.279 84.396 13.886 142.372-16.846l1.708 3.225c-26.088 13.828-53.082 21.84-80.23 23.815-4.474.326-8.953.49-13.439.489z"/></g><g><path fill="#f2f2f2" d="M1049.294 195.78c-7.028 8.53-14.848 20.663-18.248 30.675l-3.292-18.159-14.144-11.848c10.382 2.004 24.795 1.217 35.684-.668z"/></g><g><path fill="#f2f2f2" d="M1103.347 197.204l-2.277-2.852c.226-.18 23.037-18.17 59.471-28.459a188.219 188.219 0 0 1 64.992-6.724c27.148 1.975 54.14 9.987 80.23 23.815l-1.709 3.225c-58.04-30.764-109.54-26.12-142.521-16.804-35.734 10.092-57.966 27.623-58.186 27.8z"/></g><g><path fill="#f2f2f2" d="M1323.876 195.782c-10.891-1.882-25.304-2.67-35.686-.666l14.146-11.85 3.29-18.156c3.4 10.012 11.22 22.144 18.25 30.672z"/></g><g><path fill="#1565c0" d="M1036.52 126.45h59.296v1.824h-59.296z"/></g><g><path fill="#1565c0" d="M1036.52 144.69h59.296v1.824h-59.296z"/></g><g><path fill="#1565c0" d="M1036.52 162.94h59.296v1.824h-59.296z"/></g><g><path fill="#1565c0" d="M770.15 234.09h59.296v1.824H770.15z"/></g><g><path fill="#1565c0" d="M770.15 252.34h59.296v1.824H770.15z"/></g><g><path fill="#1565c0" d="M770.15 270.58h59.296v1.824H770.15z"/></g><g><path fill="#1565c0" d="M801.16 218.588c6.549 0 11.858-5.31 11.858-11.859 0-6.55-5.31-11.859-11.859-11.859-6.55 0-11.859 5.31-11.859 11.86 0 6.549 5.31 11.858 11.86 11.858z"/></g><g><path fill="#1565c0" d="M1066.63 202.168c6.549 0 11.858-5.31 11.858-11.859 0-6.55-5.31-11.859-11.859-11.859-6.55 0-11.859 5.31-11.859 11.86 0 6.549 5.31 11.858 11.86 11.858z"/></g><g><path fill="#f2f2f2" d="M29.276 143.755L27 140.902c.226-.18 23.036-18.169 59.47-28.458a188.16 188.16 0 0 1 64.991-6.724c27.148 1.975 54.142 9.987 80.23 23.815l-1.708 3.225c-58.04-30.765-109.54-26.12-142.521-16.804-35.733 10.091-57.965 27.623-58.186 27.799z"/></g><g><path fill="#f2f2f2" d="M249.816 142.332c-10.891-1.882-25.304-2.67-35.686-.666l14.146-11.85 3.29-18.156c3.4 10.012 11.22 22.144 18.25 30.672z"/></g><g><path fill="#f2f2f2" d="M402.572 179.424a189.387 189.387 0 0 1-51.552-7.213c-36.434-10.29-59.244-28.279-59.47-28.458l2.276-2.853c.221.176 22.564 17.77 58.335 27.841 32.95 9.279 84.396 13.886 142.372-16.846l1.708 3.225c-26.088 13.828-53.082 21.84-80.23 23.815-4.474.326-8.953.49-13.439.489z"/></g><g><path fill="#f2f2f2" d="M514.364 142.33c-7.028 8.53-14.848 20.663-18.248 30.675l-3.292-18.159-14.144-11.848c10.382 2.004 24.795 1.217 35.684-.668z"/></g><g><path fill="#f2f2f2" d="M568.417 143.754l-2.277-2.852c.226-.18 23.037-18.17 59.471-28.459a188.219 188.219 0 0 1 64.992-6.724c27.148 1.975 54.14 9.987 80.23 23.815l-1.709 3.225c-58.04-30.764-109.54-26.12-142.521-16.804-35.734 10.092-57.966 27.623-58.186 27.8z"/></g><g><path fill="#f2f2f2" d="M788.946 142.332c-10.891-1.882-25.304-2.67-35.686-.666l14.146-11.85 3.29-18.156c3.4 10.012 11.22 22.144 18.25 30.672z"/></g><g><path fill="#1565c0" d="M501.59 73h59.296v1.824H501.59z"/></g><g><path fill="#1565c0" d="M501.59 91.24h59.296v1.824H501.59z"/></g><g><path fill="#1565c0" d="M501.59 109.49h59.296v1.824H501.59z"/></g><g><path fill="#1565c0" d="M235.22 180.64h59.296v1.824H235.22z"/></g><g><path fill="#1565c0" d="M235.22 198.89h59.296v1.824H235.22z"/></g><g><path fill="#1565c0" d="M235.22 217.13h59.296v1.824H235.22z"/></g><g><path fill="#1565c0" d="M266.23 165.138c6.549 0 11.858-5.31 11.858-11.859 0-6.55-5.31-11.859-11.859-11.859-6.55 0-11.859 5.31-11.859 11.86 0 6.549 5.31 11.858 11.86 11.858z"/></g><g><path fill="#1565c0" d="M531.7 148.718c6.549 0 11.858-5.31 11.858-11.859 0-6.55-5.31-11.859-11.859-11.859-6.55 0-11.859 5.31-11.859 11.86 0 6.549 5.31 11.858 11.86 11.858z"/></g><g><path fill="#f2f2f2" d="M1091.276 241.755l-2.276-2.853c.226-.18 23.036-18.169 59.47-28.458a188.16 188.16 0 0 1 64.991-6.724c27.148 1.975 54.142 9.987 80.23 23.815l-1.708 3.225c-58.04-30.765-109.54-26.12-142.521-16.804-35.733 10.091-57.965 27.623-58.186 27.799z"/></g><g><path fill="#f2f2f2" d="M1311.816 240.332c-10.891-1.882-25.304-2.67-35.686-.666l14.146-11.85 3.29-18.156c3.4 10.012 11.22 22.144 18.25 30.672z"/></g><g><path fill="#f2f2f2" d="M1464.572 277.424a189.387 189.387 0 0 1-51.552-7.213c-36.434-10.29-59.244-28.278-59.47-28.458l2.276-2.853c.221.176 22.564 17.77 58.335 27.841 32.95 9.279 84.396 13.886 142.372-16.846l1.708 3.225c-26.088 13.828-53.082 21.84-80.23 23.815-4.474.326-8.953.49-13.439.489z"/></g><g><path fill="#f2f2f2" d="M1576.364 240.33c-7.028 8.53-14.848 20.663-18.248 30.675l-3.292-18.159-14.144-11.848c10.382 2.004 24.795 1.217 35.684-.668z"/></g><g><path fill="#f2f2f2" d="M1630.417 241.754l-2.277-2.852c.226-.18 23.037-18.17 59.471-28.459a188.219 188.219 0 0 1 64.992-6.724c27.148 1.975 54.14 9.987 80.23 23.815l-1.709 3.225c-58.04-30.764-109.54-26.12-142.521-16.804-35.734 10.092-57.966 27.623-58.186 27.8z"/></g><g><path fill="#f2f2f2" d="M1850.946 240.332c-10.891-1.882-25.304-2.67-35.686-.666l14.146-11.85 3.29-18.156c3.4 10.012 11.22 22.144 18.25 30.672z"/></g><g><path fill="#1565c0" d="M1563.59 171h59.296v1.824h-59.296z"/></g><g><path fill="#1565c0" d="M1563.59 189.24h59.296v1.824h-59.296z"/></g><g><path fill="#1565c0" d="M1563.59 207.49h59.296v1.824h-59.296z"/></g><g><path fill="#1565c0" d="M1297.22 278.64h59.296v1.824h-59.296z"/></g><g><path fill="#1565c0" d="M1297.22 296.89h59.296v1.824h-59.296z"/></g><g><path fill="#1565c0" d="M1297.22 315.13h59.296v1.824h-59.296z"/></g><g><path fill="#1565c0" d="M1838.18 278.64h59.296v1.824h-59.296z"/></g><g><path fill="#1565c0" d="M1838.18 296.89h59.296v1.824h-59.296z"/></g><g><path fill="#1565c0" d="M1838.18 315.13h59.296v1.824h-59.296z"/></g><g><path fill="#1565c0" d="M1328.23 263.138c6.549 0 11.858-5.31 11.858-11.859 0-6.55-5.31-11.859-11.859-11.859-6.55 0-11.859 5.31-11.859 11.86 0 6.549 5.31 11.858 11.86 11.858z"/></g><g><path fill="#1565c0" d="M1593.7 246.718c6.549 0 11.858-5.31 11.858-11.859 0-6.55-5.31-11.859-11.859-11.859-6.55 0-11.859 5.31-11.859 11.86 0 6.549 5.31 11.858 11.86 11.858z"/></g><g><path fill="#1565c0" d="M1867.37 263.138c6.549 0 11.858-5.31 11.858-11.859 0-6.55-5.31-11.859-11.859-11.859-6.55 0-11.859 5.31-11.859 11.86 0 6.549 5.31 11.858 11.86 11.858z"/></g><g><path fill="#1565c0" d="M940.451 146.063c7.302 0 13.222-5.92 13.222-13.222s-5.92-13.221-13.222-13.221-13.221 5.92-13.221 13.221c0 7.302 5.92 13.222 13.221 13.222z"/></g><g><path fill="#f2f2f2" d="M975.703 132.846c0 19.472-15.785 35.257-35.257 35.257-19.471 0-35.256-15.785-35.256-35.257 0-19.472 15.785-35.257 35.256-35.257 19.463.022 35.235 15.795 35.257 35.257zm-35.257 38.195c21.085-.023 38.172-17.11 38.195-38.195a38.195 38.195 0 1 0-38.195 38.195z"/></g></g></g></svg>