<svg xmlns="http://www.w3.org/2000/svg" width="296" height="175" viewBox="0 0 296 175"><g><g><g><path fill="#f2f2f2" d="M13.27 14.3a4 4 0 0 1 4-4h241.543a4 4 0 0 1 4 4v154.046a4 4 0 0 1-4 4H17.27a4 4 0 0 1-4-4z"/></g><g><path fill="#fff" d="M10.62 31.55h249.543v22.58H10.62z"/></g><g><path fill="#fff" d="M43.8 135.01a5.17 5.17 0 0 1 5.17-5.17h178.144a5.17 5.17 0 0 1 5.17 5.17v2.942a5.17 5.17 0 0 1-5.17 5.17H48.97a5.17 5.17 0 0 1-5.17-5.17z"/></g><g><path fill="none" stroke="#3f3d56" stroke-miterlimit="20" d="M21.24 5a4 4 0 0 1 4-4h241.543a4 4 0 0 1 4 4v154.046a4 4 0 0 1-4 4H25.24a4 4 0 0 1-4-4z"/></g><g><path fill="none" stroke="#3f3d56" stroke-miterlimit="20" d="M21.24 26.24v0h249.543v22.58H21.24v0z"/></g><g><path fill="#1565c0" d="M27.87 94.768a8.758 8.758 0 0 1 8.758-8.758h15.668a8.758 8.758 0 0 1 8.758 8.758v11.706a8.758 8.758 0 0 1-8.758 8.757H36.628a8.758 8.758 0 0 1-8.758-8.757z"/></g><g><path fill="none" stroke="#3f3d56" stroke-miterlimit="20" d="M31.86 88.128a8.758 8.758 0 0 1 8.758-8.758h15.668a8.758 8.758 0 0 1 8.758 8.758v11.706a8.758 8.758 0 0 1-8.758 8.757H40.618a8.758 8.758 0 0 1-8.758-8.757z"/></g><g><path fill="none" stroke="#3f3d56" stroke-miterlimit="20" d="M49.11 131.02a5.17 5.17 0 0 1 5.17-5.17h178.144a5.17 5.17 0 0 1 5.17 5.17v2.942a5.17 5.17 0 0 1-5.17 5.17H54.28a5.17 5.17 0 0 1-5.17-5.17z"/></g><g><path fill="none" stroke="#3f3d56" stroke-miterlimit="20" d="M0 173.67h296"/></g></g></g></svg>