<svg xmlns="http://www.w3.org/2000/svg" width="174" height="192" viewBox="0 0 174 192"><g><g><g><path fill="#e6e6e6" d="M174 93.508c0 40.922-24.456 75.703-58.518 88.38-13.71 5.074-28.379 6.41-42.688 3.886a77.05 77.05 0 0 1-4.045-.822 78.747 78.747 0 0 1-5.377-1.428C26.803 172.462 0 136.349 0 93.508 0 41.865 38.951 0 87 0s87 41.865 87 93.508z"/></g><g><path fill="#3f3d56" d="M33.419 122.506c-.312.183-.43.608-.264.95l31.962 65.65c.167.342.554.471.866.29l45.181-26.454c.312-.183.43-.608.263-.95l-31.961-65.65c-.167-.342-.555-.472-.867-.29z"/></g><g><path fill="#fff" d="M36.76 124.399l29.975 60.156 41.095-23.508-29.975-60.157z"/></g><g><path fill="#1565c0" d="M45.948 130.55c-.665.366-.806 1.434-.316 2.38.49.945 1.429 1.418 2.093 1.053l31.317-17.237c.665-.366.806-1.433.316-2.38-.49-.945-1.429-1.418-2.093-1.052z"/></g><g><path fill="#1565c0" d="M49.618 139.17c-.665.366-.806 1.434-.316 2.38.49.945 1.429 1.418 2.093 1.053l31.317-17.237c.665-.366.806-1.433.316-2.38-.49-.945-1.429-1.418-2.093-1.052z"/></g><g><path fill="#1565c0" d="M54.528 145.32c-.665.366-.806 1.434-.316 2.38.49.945 1.429 1.418 2.093 1.053l31.317-17.237c.665-.366.806-1.433.316-2.38-.49-.945-1.429-1.418-2.093-1.052z"/></g><g><path fill="#1565c0" d="M56.978 152.7c-.665.366-.806 1.434-.316 2.38.49.945 1.429 1.418 2.093 1.053l31.317-17.237c.665-.366.806-1.433.316-2.38-.49-.945-1.429-1.418-2.093-1.052z"/></g><g><path fill="#1565c0" d="M60.648 161.31c-.665.366-.806 1.434-.316 2.38.49.945 1.429 1.418 2.093 1.053l31.317-17.237c.665-.366.806-1.433.316-2.38-.49-.945-1.429-1.418-2.093-1.052z"/></g><g><path fill="#2f2e41" d="M67.39 94.129l27.76 1.84 7.775-25.173-24.349-5.586L67.39 94.129z"/></g><g><path fill="#ffb8b8" d="M86.998 87.357c6.09 0 11.028-5.233 11.028-11.689 0-6.455-4.937-11.688-11.028-11.688-6.09 0-11.028 5.233-11.028 11.688 0 6.456 4.937 11.689 11.028 11.689z"/></g><g><path fill="#ffb8b8" d="M104.156 100.26l-17.454 3.086L82.1 83.63l12.218-1.2 9.838 17.83z"/></g><g><path fill="#2f2e41" d="M115.325 180.507l.071.897c-13.897 5.001-28.766 6.317-43.27 3.83l-.095 1.594c-.107 1.734-.997 3.31-2.397 4.246a5.03 5.03 0 0 1-4.694.495l3.085-7.145 3.902-9.042 2.558-5.927-.921-20.506-.098-2.122-.12-2.707 1.666-.01 11.845-.075 11.289-.075 1.721-.01c10.795 13.875 19.701 25.151 15.458 36.557z"/></g><g><path fill="#1565c0" d="M101.163 144.56l-26.459 3.087-.98-19.203c-3.105-8.314-1.055-15.734 5.39-22.393l1.31-5.444c.7-2.913 2.886-5.174 5.67-5.868 4.331-2.608 9.237-3.85 14.742-3.672 4.514 1.85 7.342 6.583 6.966 11.654-1.139 15.091-3.183 29.218-6.64 41.84z"/></g><g><path fill="#ffb8b8" d="M93.13 111.068l-.221 1.66-3.505 26.387-1.856 3.971-.606 1.298-14.133 30.213-.593 9.428-.098 1.585a5.418 5.418 0 0 1-3.565 4.768 5.437 5.437 0 0 1-5.8-1.371 5.408 5.408 0 0 1-1.043-5.857l.566-1.328 3.082-7.225 8.355-26.628.688-2.196.82-2.613 2.33-7.424 3.711-22.83.352-2.176z"/></g><g><path fill="#1565c0" d="M93.129 113.196c-4.707-1.968-9.223-2.177-13.479 0l1.39-14.008c-.107-3.64 2.311-6.707 5.436-6.899 1.524-.093 3.018.524 4.15 1.714 1.133 1.19 1.812 2.856 1.887 4.63z"/></g><g><path fill="#2f2e41" d="M79.933 61.494s-5.58 2.238-5.723 10.376c-.007 1.37.159 2.734.494 4.052.362 1.496.652 4.741-1.78 9.067A86.816 86.816 0 0 0 68.62 93.7l6.282.666 1.038-11.449a61.469 61.469 0 0 1 3.693-16.142l.04-.107s2.882 5.507 8.36 5.337l-2.012-2.09s6.86 2.84 10.59 3.41c.869.134 1.598.783 1.896 1.689.299.905.117 1.918-.472 2.631a6.198 6.198 0 0 1-.067.08c-2.282 2.653-6.822 8.82-3.962 13.467s.545 6.01.545 6.01l4.238-2.714 1.923-1.351.044 1.72 10.139-1.605s2.727-.515-3.328-7.646c0 0-1.623-2.791-1.008-5.262.51-1.878.605-3.863.28-5.79-1.522-8.023-7.09-23.895-26.906-13.06z"/></g><g><path fill="#f2f2f2" d="M7.598 53.856a.346.346 0 0 0-.237.421l9.098 35.28c.048.184.23.293.408.244l25.77-7.094a.346.346 0 0 0 .237-.421l-9.098-35.28a.333.333 0 0 0-.408-.244z"/></g><g><path fill="#1565c0" d="M13.875 58.882c-.312.075-.473.448-.358.833.115.385.463.638.775.564l14.723-3.5c.312-.074.472-.448.357-.833-.115-.384-.462-.637-.774-.563z"/></g><g><path fill="#1565c0" d="M15.095 62.572c-.312.075-.473.448-.358.833.115.385.463.638.775.564l14.723-3.5c.312-.074.472-.448.357-.833-.115-.384-.462-.637-.774-.563z"/></g><g><path fill="#1565c0" d="M16.325 67.492c-.312.075-.473.448-.358.833.115.385.463.638.775.564l14.723-3.5c.312-.074.472-.448.357-.833-.115-.384-.462-.637-.774-.563z"/></g><g><path fill="#1565c0" d="M18.775 71.182c-.312.075-.473.448-.358.833.115.385.463.638.775.564l14.723-3.5c.312-.074.472-.448.357-.833-.115-.384-.462-.637-.774-.563z"/></g><g><path fill="#1565c0" d="M18.775 73.642c-.312.075-.473.448-.358.833.115.385.463.638.775.564l14.723-3.5c.312-.074.472-.448.357-.833-.115-.384-.462-.637-.774-.563z"/></g><g><path fill="#1565c0" d="M20.005 78.562c-.312.075-.473.448-.358.833.115.385.463.638.775.564l14.723-3.5c.312-.074.472-.448.357-.833-.115-.384-.462-.637-.774-.563z"/></g><g><path fill="#e6e6e6" d="M22.23 41.568a.37.37 0 0 0-.132.475l15.98 32.825c.084.171.278.236.434.145l22.59-13.227a.37.37 0 0 0 .132-.475L45.253 28.486c-.084-.171-.277-.236-.433-.145z"/></g><g><path fill="#fff" d="M23.28 43.399l14.988 29.193 20.547-11.408L43.828 31.99z"/></g><g><path fill="#1565c0" d="M28.44 46.31c-.284.172-.345.674-.135 1.12.21.444.612.667.897.495l13.422-8.112c.285-.172.345-.674.135-1.12-.21-.444-.612-.667-.897-.495z"/></g><g><path fill="#1565c0" d="M29.67 51.23c-.284.172-.345.674-.135 1.12.21.444.612.667.897.495l13.422-8.112c.285-.172.345-.674.135-1.12-.21-.444-.612-.667-.897-.495z"/></g><g><path fill="#1565c0" d="M34.57 53.69c-.284.172-.345.674-.135 1.12.21.444.612.667.897.495l13.422-8.112c.285-.172.345-.674.135-1.12-.21-.444-.612-.667-.897-.495z"/></g><g><path fill="#1565c0" d="M35.8 61.08c-.284.172-.345.674-.135 1.12.21.444.612.667.897.495l13.422-8.112c.285-.172.345-.674.135-1.12-.21-.444-.612-.667-.897-.495z"/></g><g><path fill="#1565c0" d="M37.02 63.54c-.284.172-.345.674-.135 1.12.21.444.612.667.897.495l13.422-8.112c.285-.172.345-.674.135-1.12-.21-.444-.612-.667-.897-.495z"/></g><g><path fill="#1565c0" d="M39.47 67.23c-.284.172-.345.674-.135 1.12.21.444.612.667.897.495l13.422-8.112c.285-.172.345-.674.135-1.12-.21-.444-.612-.667-.897-.495z"/></g><g><path fill="#e6e6e6" d="M136.822 89.868a.312.312 0 0 0-.444.123l-17.473 31.851c-.09.166-.04.38.114.478l22.316 14.205a.312.312 0 0 0 .443-.122l17.474-31.851a.365.365 0 0 0-.114-.478z"/></g><g><path fill="#fff" d="M137.73 92.28l-16.42 29.201 20.34 12.631 16.42-29.201z"/></g><g><path fill="#1565c0" d="M139.544 99.725c-.284-.175-.703.015-.935.424-.231.408-.189.882.095 1.057l13.376 8.232c.284.175.703-.016.935-.424.231-.408.19-.882-.095-1.057z"/></g><g><path fill="#1565c0" d="M137.094 104.645c-.284-.175-.703.015-.935.424-.231.408-.189.882.095 1.057l13.376 8.232c.284.175.703-.016.935-.424.231-.408.19-.882-.095-1.057z"/></g><g><path fill="#1565c0" d="M134.644 107.105c-.284-.175-.703.015-.935.424-.231.408-.189.882.095 1.057l13.376 8.232c.284.175.703-.016.935-.424.231-.408.19-.882-.095-1.057z"/></g><g><path fill="#1565c0" d="M132.194 110.795c-.284-.175-.703.015-.935.424-.231.408-.189.882.095 1.057l13.376 8.232c.284.175.703-.016.935-.424.231-.408.19-.882-.095-1.057z"/></g><g><path fill="#1565c0" d="M130.974 114.485c-.284-.175-.703.015-.935.424-.231.408-.189.882.095 1.057l13.376 8.232c.284.175.703-.016.935-.424.231-.408.19-.882-.095-1.057z"/></g><g><path fill="#1565c0" d="M127.294 116.945c-.284-.175-.703.015-.935.424-.231.408-.189.882.095 1.057l13.376 8.232c.284.175.703-.016.935-.424.231-.408.19-.882-.095-1.057z"/></g></g></g></svg>