<svg xmlns="http://www.w3.org/2000/svg" width="158" height="215" viewBox="0 0 158 215"><g><g><g><path fill="#e6e6e6" d="M8.85 215.003h142.832V30.379c0-9.776-9.036-17.729-20.142-17.729H28.992c-11.106 0-20.142 7.953-20.142 17.73z"/></g><g><path fill="#fff" d="M20.22 208.68h118.816V51.75c0-8.31-7.517-15.07-16.755-15.07H36.975c-9.239 0-16.755 6.76-16.755 15.07z"/></g><g><path fill="#3f3d56" d="M6.411 0C2.876 0 0 2.554 0 5.694V22.13c0 3.14 2.876 5.694 6.411 5.694h145.178c3.535 0 6.411-2.555 6.411-5.694V5.694C158 2.554 155.124 0 151.59 0z"/></g><g opacity=".2"><path d="M17.7 0h3.792v27.824H17.7z"/></g><g opacity=".2"><path d="M37.92 0h3.792v27.824H37.92z"/></g><g opacity=".2"><path d="M58.14 0h3.792v27.824H58.14z"/></g><g opacity=".2"><path d="M78.37 0h3.792v27.824H78.37z"/></g><g opacity=".2"><path d="M98.59 0h3.792v27.824H98.59z"/></g><g opacity=".2"><path d="M116.29 0h3.792v27.824h-3.792z"/></g><g opacity=".2"><path d="M139.04 0h3.792v27.824h-3.792z"/></g><g><path fill="#3f3d56" d="M37.762 187.18c-3.399.01-6.152 2.835-6.162 6.324.01 3.488 2.763 6.313 6.162 6.323h11.534V187.18z"/></g><g><path fill="#1565c0" d="M59.452 187.18H48.03v12.647h11.422c3.46-.01 6.264-2.835 6.274-6.323-.01-3.489-2.813-6.314-6.274-6.324z"/></g><g opacity=".2"><path d="M63.546 188.44a6.576 6.576 0 0 1 1.537 4.232c-.01 3.577-2.814 6.475-6.275 6.485H48.03v.665h11.422c3.46-.01 6.264-2.908 6.274-6.485a6.564 6.564 0 0 0-2.18-4.897z"/></g><g><path fill="#3f3d56" d="M90.504 86.818c-2.39-2.659-6.369-2.782-8.904-.277-2.52 2.52-2.638 6.715-.262 9.388l8.086 9.046 9.166-9.111z"/></g><g><path fill="#1565c0" d="M105.712 105.027l-7.958-8.907-9.274 9.224 7.958 8.908c2.419 2.691 6.443 2.816 9.008.28 2.551-2.552 2.67-6.798.266-9.505z"/></g><g opacity=".2"><path d="M107.433 109.409a6.745 6.745 0 0 1-1.956 4.17c-2.565 2.514-6.59 2.39-9.01-.278l-7.511-8.331-.476.469 7.96 8.828c2.419 2.668 6.445 2.792 9.01.278 1.344-1.329 2.068-3.204 1.983-5.136z"/></g><g><path fill="#3f3d56" d="M56.374 108.318c-2.39-2.659-6.369-2.782-8.904-.277-2.52 2.52-2.638 6.715-.262 9.388l8.086 9.046 9.166-9.111z"/></g><g><path fill="#1565c0" d="M72.852 125.257l-7.958-8.907-9.274 9.224 7.958 8.908c2.419 2.691 6.443 2.816 9.008.28 2.551-2.552 2.67-6.798.266-9.505z"/></g><g opacity=".2"><path d="M74.573 129.649a6.745 6.745 0 0 1-1.956 4.17c-2.565 2.514-6.59 2.39-9.01-.278l-7.511-8.331-.476.469 7.96 8.828c2.419 2.668 6.445 2.792 9.01.278 1.344-1.329 2.068-3.204 1.983-5.136z"/></g><g><path fill="#3f3d56" d="M90.504 127.288c-2.39-2.659-6.369-2.782-8.904-.277-2.52 2.52-2.638 6.715-.262 9.388l8.086 9.046 9.166-9.111z"/></g><g><path fill="#1565c0" d="M105.712 144.227l-7.958-8.907-9.274 9.224 7.958 8.908c2.419 2.691 6.443 2.816 9.008.28 2.551-2.552 2.67-6.798.266-9.505z"/></g><g opacity=".2"><path d="M107.433 148.619a6.745 6.745 0 0 1-1.956 4.17c-2.565 2.514-6.59 2.39-9.01-.278l-7.511-8.331-.476.469 7.96 8.828c2.419 2.668 6.445 2.792 9.01.278 1.344-1.329 2.068-3.204 1.983-5.136z"/></g><g><path fill="#3f3d56" d="M110.603 168.338c2.468-2.577 2.537-6.812.154-9.48-2.398-2.652-6.338-2.725-8.82-.164l-8.397 8.717 8.666 9.644z"/></g><g><path fill="#1565c0" d="M94.112 185.28l8.268-8.58-8.773-9.76-8.267 8.58c-2.498 2.608-2.567 6.893-.155 9.593 2.427 2.684 6.415 2.758 8.927.166z"/></g><g opacity=".2"><path d="M91.016 187.164c-1.435-.14-2.776-.86-3.778-2.03-2.293-2.7-2.227-6.987.147-9.595l7.417-8.098-.428-.501-7.859 8.582c-2.375 2.608-2.44 6.895-.147 9.594 1.212 1.415 2.91 2.162 4.648 2.048z"/></g><g><path fill="#3f3d56" d="M66.363 148.108c2.468-2.577 2.537-6.812.154-9.48-2.398-2.652-6.338-2.725-8.82-.164L49.3 147.18l8.666 9.644z"/></g><g><path fill="#1565c0" d="M49.872 165.05l8.268-8.58-8.773-9.76-8.267 8.58c-2.498 2.608-2.567 6.893-.155 9.593 2.427 2.684 6.415 2.758 8.927.166z"/></g><g opacity=".2"><path d="M45.506 166.934c-1.435-.14-2.776-.86-3.778-2.03-2.293-2.7-2.227-6.987.147-9.595l7.417-8.098-.428-.501-7.859 8.582c-2.375 2.608-2.44 6.895-.147 9.594 1.212 1.415 2.91 2.162 4.648 2.048z"/></g><g><path fill="#3f3d56" d="M129.563 122.808c2.468-2.577 2.537-6.812.154-9.48-2.398-2.652-6.338-2.725-8.82-.164l-8.397 8.717 8.666 9.644z"/></g><g><path fill="#1565c0" d="M113.072 139.75l8.268-8.58-8.773-9.76-8.267 8.58c-2.498 2.608-2.567 6.893-.155 9.593 2.427 2.684 6.415 2.758 8.927.166z"/></g><g opacity=".2"><path d="M109.976 141.634c-1.435-.14-2.776-.86-3.778-2.03-2.293-2.7-2.227-6.987.147-9.595l7.417-8.098-.428-.501-7.859 8.582c-2.375 2.608-2.44 6.895-.147 9.594 1.212 1.415 2.91 2.162 4.648 2.048z"/></g><g><path fill="#3f3d56" d="M115.784 175.338c-2.39-2.659-6.369-2.782-8.904-.277-2.52 2.52-2.638 6.715-.262 9.388l8.086 9.046 9.166-9.111z"/></g><g><path fill="#1565c0" d="M130.992 192.287l-7.958-8.907-9.274 9.224 7.958 8.908c2.419 2.691 6.443 2.816 9.008.28 2.551-2.552 2.67-6.798.266-9.505z"/></g><g opacity=".2"><path d="M132.713 196.679a6.745 6.745 0 0 1-1.956 4.17c-2.565 2.514-6.59 2.39-9.01-.278l-7.511-8.331-.476.469 7.96 8.828c2.419 2.668 6.445 2.792 9.01.278 1.344-1.329 2.068-3.204 1.983-5.136z"/></g><g><path fill="#3f3d56" d="M71.544 174.078c-2.39-2.659-6.369-2.782-8.904-.277-2.52 2.52-2.638 6.715-.262 9.388l8.086 9.046 9.166-9.111z"/></g><g><path fill="#1565c0" d="M86.752 191.027l-7.958-8.907-9.274 9.224 7.958 8.908c2.419 2.691 6.443 2.816 9.008.28 2.551-2.552 2.67-6.798.266-9.505z"/></g><g opacity=".2"><path d="M88.473 195.409a6.745 6.745 0 0 1-1.956 4.17c-2.565 2.514-6.59 2.39-9.01-.278l-7.511-8.331-.476.469 7.96 8.828c2.419 2.668 6.445 2.792 9.01.278 1.344-1.329 2.068-3.204 1.983-5.136z"/></g><g><path fill="#1565c0" d="M83.426 151.135c0 4.508-2.958 8.394-7.078 9.296a8.348 8.348 0 0 1-3.54 0c-4.12-.903-7.078-4.788-7.078-9.296 0-4.507 2.959-8.393 7.078-9.295a8.35 8.35 0 0 1 3.54 0c4.12.901 7.079 4.787 7.078 9.295z"/></g><g opacity=".2"><path d="M77.102 141.84v18.59a9.569 9.569 0 0 1-3.792 0v-18.59a9.57 9.57 0 0 1 3.792 0z"/></g><g><path fill="#1565c0" d="M80.138 121.22a8.348 8.348 0 0 1-3.54 0c-4.12-.902-7.078-4.787-7.078-9.295 0-4.507 2.959-8.393 7.078-9.295a8.35 8.35 0 0 1 3.54 0c4.12.901 7.079 4.787 7.078 9.295 0 4.508-2.958 8.394-7.078 9.296z"/></g><g opacity=".2"><path d="M80.892 102.63v18.59a9.569 9.569 0 0 1-3.792 0v-18.59a9.57 9.57 0 0 1 3.792 0z"/></g><g><path fill="#1565c0" d="M87.216 167.575c0 4.508-2.958 8.394-7.078 9.296a8.348 8.348 0 0 1-3.54 0c-4.12-.903-7.078-4.788-7.078-9.296 0-4.507 2.959-8.393 7.078-9.295a8.35 8.35 0 0 1 3.54 0c4.12.901 7.079 4.787 7.078 9.295z"/></g><g opacity=".2"><path d="M80.892 158.28v18.59a9.569 9.569 0 0 1-3.792 0v-18.59a9.57 9.57 0 0 1 3.792 0z"/></g><g><path fill="#1565c0" d="M109.966 194.135c0 4.508-2.958 8.394-7.078 9.296a8.348 8.348 0 0 1-3.54 0c-4.12-.903-7.078-4.788-7.078-9.296 0-4.507 2.959-8.393 7.078-9.295a8.35 8.35 0 0 1 3.54 0c4.12.901 7.079 4.787 7.078 9.295z"/></g><g opacity=".2"><path d="M103.652 184.84v18.59a9.569 9.569 0 0 1-3.792 0v-18.59a9.57 9.57 0 0 1 3.792 0z"/></g><g><path fill="#1565c0" d="M130.007 144.307c3.028 3.127 3.584 8.108 1.33 11.913a9.319 9.319 0 0 1-2.455 2.731c-3.465 2.554-8.127 2.141-11.154-.987-3.027-3.128-3.583-8.107-1.33-11.913a9.32 9.32 0 0 1 2.455-2.731c3.465-2.554 8.127-2.142 11.154.987z"/></g><g opacity=".2"><path d="M118.783 144.18l12.675 12.525a9.201 9.201 0 0 1-2.493 2.651l-12.675-12.524a9.203 9.203 0 0 1 2.493-2.652z"/></g><g><path fill="#1565c0" d="M132.537 165.807c3.028 3.127 3.584 8.108 1.33 11.913a9.319 9.319 0 0 1-2.455 2.731c-3.465 2.554-8.127 2.141-11.154-.987-3.027-3.128-3.583-8.107-1.33-11.913a9.32 9.32 0 0 1 2.455-2.731c3.465-2.554 8.127-2.142 11.154.987z"/></g><g opacity=".2"><path d="M121.313 164.41l12.675 12.525a9.201 9.201 0 0 1-2.493 2.651l-12.675-12.524a9.203 9.203 0 0 1 2.493-2.652z"/></g><g><path fill="#1565c0" d="M51.647 170.867c3.028 3.127 3.584 8.108 1.33 11.913a9.319 9.319 0 0 1-2.455 2.731c-3.465 2.554-8.127 2.141-11.154-.987-3.027-3.128-3.583-8.107-1.33-11.913a9.32 9.32 0 0 1 2.455-2.731c3.465-2.554 8.127-2.142 11.154.987z"/></g><g opacity=".2"><path d="M40.413 169.47l12.675 12.525a9.201 9.201 0 0 1-2.493 2.651L37.92 172.122a9.203 9.203 0 0 1 2.493-2.652z"/></g></g></g></svg>