<svg xmlns="http://www.w3.org/2000/svg" width="237" height="214" viewBox="0 0 237 214"><g><g><g><path fill="#2f2e41" d="M150.36 191.071H22.94v-.913h126.502v-44.329H33.652l-5.625-11.684.826-.395 5.376 11.165h116.13v46.156z"/></g><g><path fill="#3f3d56" d="M40.136 213.997c5.278 0 9.557-4.277 9.557-9.553 0-5.277-4.279-9.554-9.557-9.554-5.277 0-9.556 4.277-9.556 9.554 0 5.276 4.279 9.553 9.556 9.553z"/></g><g><path fill="#3f3d56" d="M135.706 213.997c5.278 0 9.557-4.277 9.557-9.553 0-5.277-4.279-9.554-9.557-9.554-5.277 0-9.556 4.277-9.556 9.554 0 5.276 4.279 9.553 9.556 9.553z"/></g><g><path fill="#3f3d56" d="M231.264 11.464a5.733 5.733 0 1 0 0-11.464 5.733 5.733 0 1 0 0 11.464z"/></g><g><path fill="#1565c0" d="M152.921 126.11H27.203L0 35.67h180.935l-.164.533-27.85 89.907z"/></g><g><path fill="#2f2e41" d="M183.086 28.029l-.876-.235L188.191 5.1h34.793v.913H188.89l-5.803 22.016z"/></g></g></g></svg>